<svg width="35" height="28" viewBox="0 0 35 28" fill="#fff" xmlns="http://www.w3.org/2000/svg">
<path d="M27.0301 19.2186H14.4801C13.3381 19.212 12.2319 18.8939 11.3395 18.3154C10.4471 17.7369 9.82041 16.9316 9.56015 16.029L7.56015 9.43076C7.37615 8.81809 7.36671 8.17944 7.53257 7.56337C7.69843 6.9473 8.03521 6.37003 8.51729 5.87548C8.99938 5.38093 9.61408 4.98212 10.3146 4.70937C11.0152 4.43662 11.7832 4.29713 12.5601 4.30149H29.0602C29.8371 4.29713 30.6051 4.43662 31.3057 4.70937C32.0062 4.98212 32.6209 5.38093 33.103 5.87548C33.5851 6.37003 33.9219 6.9473 34.0877 7.56337C34.2536 8.17944 34.2442 8.81809 34.0602 9.43076L32.0602 16.0452C31.7901 16.959 31.145 17.7711 30.2308 18.3478C29.3166 18.9245 28.1879 19.2316 27.0301 19.2186ZM12.5001 6.33047C12.1049 6.33145 11.715 6.405 11.3597 6.54562C11.0045 6.68623 10.693 6.89026 10.4487 7.14243C10.2043 7.3946 10.0335 7.68837 9.94886 8.00173C9.86426 8.3151 9.86812 8.63994 9.96015 8.95192L11.9601 15.5664C12.0956 16.0299 12.4203 16.4426 12.8815 16.7374C13.3427 17.0321 13.9132 17.1915 14.5001 17.1896H27.0301C27.6171 17.1915 28.1876 17.0321 28.6488 16.7374C29.11 16.4426 29.4347 16.0299 29.5702 15.5664L31.5701 8.95192C31.6642 8.63981 31.6695 8.31442 31.5857 8.00039C31.5019 7.68636 31.3312 7.39191 31.0865 7.13934C30.8418 6.88677 30.5295 6.68269 30.1732 6.54255C29.8169 6.40242 29.4261 6.32989 29.0301 6.33047H12.5001Z" fill="#fff"/>
<path d="M9.02 11.1594C8.73442 11.1567 8.4586 11.0747 8.23846 10.927C8.01831 10.7794 7.8671 10.575 7.81 10.3478L6.02 4.04176C5.85471 3.4673 5.45409 2.95538 4.88368 2.58975C4.31327 2.22411 3.60685 2.02642 2.88 2.02901H1.25C0.918479 2.02901 0.600537 1.92213 0.366117 1.73187C0.131696 1.54162 0 1.28358 0 1.01452C0 0.74546 0.131696 0.48742 0.366117 0.297166C0.600537 0.106912 0.918479 2.82979e-05 1.25 2.82979e-05H2.88C4.1718 -0.00363419 5.42696 0.348318 6.44046 0.998397C7.45396 1.64848 8.1659 2.55826 8.46 3.57915L10.24 9.88524C10.2785 10.0148 10.285 10.1492 10.259 10.2808C10.233 10.4124 10.175 10.5384 10.0885 10.6517C10.002 10.7649 9.88862 10.8631 9.75498 10.9405C9.62134 11.0179 9.47009 11.073 9.31 11.1026C9.21604 11.1297 9.11884 11.1488 9.02 11.1594ZM14.67 28C13.8789 28 13.1055 27.8096 12.4477 27.4529C11.7899 27.0962 11.2772 26.5892 10.9745 25.996C10.6717 25.4028 10.5925 24.75 10.7469 24.1203C10.9012 23.4906 11.2822 22.9121 11.8416 22.4581C12.401 22.0041 13.1137 21.6949 13.8896 21.5696C14.6656 21.4444 15.4698 21.5087 16.2007 21.7544C16.9316 22.0001 17.5564 22.4162 17.9959 22.95C18.4354 23.4839 18.67 24.1116 18.67 24.7536C18.67 25.6146 18.2486 26.4403 17.4984 27.0492C16.7483 27.658 15.7309 28 14.67 28ZM14.67 23.5038C14.3694 23.5038 14.0755 23.5761 13.8255 23.7117C13.5756 23.8472 13.3807 24.0399 13.2657 24.2653C13.1507 24.4907 13.1206 24.7388 13.1792 24.9781C13.2379 25.2174 13.3826 25.4372 13.5952 25.6097C13.8078 25.7822 14.0786 25.8997 14.3735 25.9473C14.6683 25.9949 14.9739 25.9705 15.2517 25.8771C15.5294 25.7837 15.7668 25.6256 15.9338 25.4228C16.1009 25.2199 16.19 24.9814 16.19 24.7374C16.19 24.4102 16.0299 24.0964 15.7448 23.8651C15.4597 23.6337 15.0731 23.5038 14.67 23.5038ZM28.49 28C27.6989 28 26.9255 27.8096 26.2677 27.4529C25.6099 27.0962 25.0972 26.5892 24.7945 25.996C24.4917 25.4028 24.4125 24.75 24.5669 24.1203C24.7212 23.4906 25.1022 22.9121 25.6616 22.4581C26.221 22.0041 26.9337 21.6949 27.7096 21.5696C28.4856 21.4444 29.2898 21.5087 30.0207 21.7544C30.7516 22.0001 31.3764 22.4162 31.8159 22.95C32.2554 23.4839 32.49 24.1116 32.49 24.7536C32.49 25.6146 32.0686 26.4403 31.3184 27.0492C30.5683 27.658 29.5509 28 28.49 28ZM28.49 23.5038C28.1898 23.5054 27.8969 23.5791 27.6483 23.7156C27.3996 23.8521 27.2064 24.0454 27.0929 24.2709C26.9793 24.4965 26.9507 24.7442 27.0104 24.983C27.0702 25.2218 27.2158 25.4408 27.4287 25.6125C27.6417 25.7842 27.9125 25.9009 28.2071 25.9479C28.5017 25.9948 28.8068 25.9699 29.084 25.8763C29.3611 25.7827 29.5979 25.6246 29.7645 25.4219C29.9311 25.2192 30.02 24.981 30.02 24.7374C30.02 24.5747 29.9804 24.4136 29.9033 24.2634C29.8263 24.1132 29.7135 23.9769 29.5713 23.8622C29.4291 23.7476 29.2603 23.6569 29.0747 23.5953C28.8892 23.5338 28.6904 23.5027 28.49 23.5038Z" fill="#fff"/>
<path d="M28.4899 23.5038H11.8299C10.7982 23.5038 9.80881 23.1712 9.0793 22.5791C8.34978 21.987 7.93994 21.184 7.93994 20.3467C7.93994 19.5094 8.34978 18.7063 9.0793 18.1143C9.80881 17.5222 10.7982 17.1896 11.8299 17.1896H14.4799C14.8115 17.1896 15.1294 17.2965 15.3638 17.4867C15.5982 17.677 15.7299 17.935 15.7299 18.2041C15.7299 18.4731 15.5982 18.7312 15.3638 18.9214C15.1294 19.1117 14.8115 19.2186 14.4799 19.2186H11.8299C11.4613 19.2186 11.1077 19.3374 10.8471 19.549C10.5864 19.7605 10.4399 20.0475 10.4399 20.3467C10.4399 20.6459 10.5864 20.9328 10.8471 21.1444C11.1077 21.3559 11.4613 21.4748 11.8299 21.4748H28.4899C28.8215 21.4748 29.1394 21.5817 29.3738 21.7719C29.6082 21.9622 29.7399 22.2202 29.7399 22.4893C29.7399 22.7583 29.6082 23.0164 29.3738 23.2066C29.1394 23.3969 28.8215 23.5038 28.4899 23.5038Z" fill="#fff"/>
</svg>
