<svg width="121" height="171" viewBox="0 0 121 171" fill="none" xmlns="http://www.w3.org/2000/svg">
<g id="Group 5">
<path id="Vector" d="M82.2183 107.144C84.9863 110.42 82.8496 113.32 80.373 115.275C78.0461 116.909 75.6788 116.958 73.2911 116.213L72.9715 116.061C69.9849 116.598 68.4957 113.931 67.0267 112.057C65.8774 110.335 64.1089 109.101 62.4902 107.547C62.4902 107.547 62.1705 107.395 61.8508 107.243C60.912 107.58 59.4834 107.292 58.7146 108.101C59.2245 109.519 60.2038 110.768 61.3329 111.697C62.4619 112.626 62.9718 114.044 63.9512 115.293C64.6108 116.391 63.413 118.954 62.0249 120.252C59.7183 122.68 57.0312 122.576 54.0245 122.32C52.9156 122.184 51.1877 122.537 50.2286 122.08C49.9089 121.928 49.2695 121.624 48.9498 121.472C47.1611 119.446 44.903 117.587 43.4137 114.92C43.0738 113.975 42.4344 113.671 41.7748 112.573C40.9452 111.003 39.9861 110.547 38.7478 111.525C37.5095 112.502 36.2509 112.686 34.8224 112.398C36.4411 113.952 37.7604 116.147 39.3791 117.7C40.9978 119.254 41.6777 121.145 42.2079 123.355C42.7178 124.773 41.7991 125.903 40.2411 126.728C36.8054 128.227 33.1795 128.46 29.4039 129.013C27.6759 129.366 26.3769 127.964 24.9281 126.883C24.6084 126.731 23.7991 125.954 22.84 125.497C21.8809 125.041 21.3912 124.416 21.0513 123.471C19.3921 120.331 16.6443 117.848 15.6042 114.22C14.3862 115.99 13.1276 116.175 11.5291 115.414C10.8897 115.11 9.93063 114.653 9.48144 115.615C9.18199 116.255 10.1411 116.712 10.311 117.184C12.5894 119.836 14.718 122.807 16.9964 125.458C17.4861 126.083 17.8058 126.235 18.2954 126.86C19.9142 128.414 19.9749 130.793 18.4371 132.411C14.8922 135.816 10.3476 137.179 5.27295 136.33C4.16414 136.194 3.8242 135.249 3.18481 134.945C1.24638 133.239 -1.01174 131.381 -2.95017 129.675C-5.84768 127.513 -7.03746 124.204 -9.16609 121.233C-9.82573 120.136 -10.0159 118.87 -10.6756 117.773C-10.8455 117.3 -10.8455 117.3 -11.4849 116.996C-14.8316 115.795 -16.94 113.616 -18.749 110.797C-20.8776 107.825 -23.6254 105.342 -26.2234 102.539C-28.4816 100.681 -30.1205 98.3343 -31.6098 95.667C-33.7384 92.6955 -36.1665 90.3648 -37.8257 87.225C-39.3149 84.5577 -40.4845 82.0426 -41.5043 79.2071C-42.0142 77.7893 -42.5241 76.3715 -43.1837 75.2742C-45.1424 72.7753 -46.3119 70.2601 -46.3929 67.088C-46.6236 64.2363 -48.2626 61.8895 -50.0513 59.8631C-52.0099 57.3642 -54.438 55.0335 -56.3967 52.5346C-57.0563 51.4372 -58.1651 51.3012 -58.8248 50.2039C-61.7628 46.4555 -61.7142 42.1698 -60.4072 37.6998C-59.958 36.7385 -59.5088 35.7771 -59.3793 34.6636C-59.2498 33.5502 -58.4809 32.741 -57.3923 32.0839C-55.3447 31.8834 -53.4872 30.4171 -51.2898 29.8961C-48.1536 29.0385 -45.1266 30.0874 -41.9498 30.8158C-38.7731 31.5442 -35.4264 32.7453 -32.5289 34.9076C-31.0801 35.9888 -29.0122 36.5813 -26.9645 36.3807C-24.1277 36.1639 -21.4609 35.4746 -18.7739 35.5783C-15.6174 35.5137 -12.6106 35.7696 -9.43387 36.498C-6.89653 36.9222 -5.10784 38.9485 -3.16941 40.6545C-1.55069 42.2082 0.34725 42.3281 2.41516 42.9205C3.05456 43.2248 3.52398 43.0565 3.65347 41.943C3.63323 41.15 4.25238 40.6613 5.06175 41.4382C5.38144 41.5903 5.38145 41.5903 5.70115 41.7425C8.04827 40.901 10.5856 41.3251 12.783 40.8041C14.1913 40.2992 15.4701 40.9078 16.7489 41.5164C18.3473 42.2771 19.9458 43.0379 21.5443 43.7986C22.6734 44.7276 23.7822 44.8636 24.7211 44.527C26.2993 44.4947 27.8775 44.4625 29.2858 43.9576C32.8915 42.9316 36.048 42.8671 39.4149 44.8611C41.6528 45.9262 44.1901 46.3503 46.5373 45.5088C50.143 44.4829 53.17 45.5318 55.4281 47.3899C58.6453 49.7044 61.7128 52.3393 64.1611 55.463C65.8001 57.8098 67.9085 59.9884 70.3163 61.526C72.8941 63.5362 74.8528 66.0352 76.8115 68.5341C79.7495 72.2825 82.6875 76.031 86.0949 79.6111C86.5845 80.2359 86.9042 80.388 86.9245 81.181C87.9645 84.8096 90.7123 87.2924 93.3104 90.0957C95.0991 92.1221 96.0986 94.1646 97.4179 96.3592C97.5879 96.8318 97.7579 97.3044 98.0776 97.4566C99.1864 97.5926 98.8869 98.2334 98.2678 98.7222C98.118 99.0426 97.9683 99.3631 97.9683 99.3631C98.6077 99.6674 98.9072 99.0265 99.2269 99.1786C99.6963 99.0103 100.166 98.842 100.186 99.6351C100.356 100.108 99.7368 100.596 99.4171 100.444C98.458 99.9878 98.4782 100.781 98.3285 101.101C96.471 102.568 97.7498 103.176 98.7291 104.426C100.518 106.452 102.307 108.478 103.946 110.825C105.095 112.547 104.816 113.981 102.788 114.975C100.441 115.816 98.0939 116.658 95.7265 116.706C93.6788 116.907 91.7607 115.994 90.7611 113.951C89.7615 111.909 87.9931 110.675 86.5241 108.801C85.2048 106.607 83.926 105.998 82.2183 107.144ZM24.4909 103.564C23.552 103.901 23.1028 104.862 22.4837 105.351C23.4225 105.014 24.1914 104.205 24.4909 103.564C24.8106 103.717 24.9603 103.396 25.11 103.076C24.7903 102.923 24.6406 103.244 24.4909 103.564ZM71.3364 95.306C70.0778 95.4905 69.4789 96.7723 68.3903 97.4293C69.3494 97.8857 69.6691 98.0379 70.1183 97.0766C70.4178 96.4357 71.0369 95.9469 71.3364 95.306C71.6561 95.4582 71.8058 95.1377 71.3364 95.306C71.4861 94.9856 71.4861 94.9856 71.3364 95.306ZM93.0636 98.9874C94.1724 99.1234 94.5124 100.069 95.3217 100.845C95.4917 101.318 96.1311 101.622 96.4305 100.981C97.0497 100.493 96.8797 100.02 96.0906 100.036C95.7709 99.8841 95.4512 99.732 95.9206 99.5637C96.989 98.1136 95.7102 97.505 95.6899 96.712C94.6014 97.369 93.6625 97.7056 93.0636 98.9874C92.8936 98.5148 92.8936 98.5148 93.0636 98.9874C92.7439 98.8352 92.7439 98.8352 93.0636 98.9874ZM2.63442 131.941L2.95412 132.093C2.63442 131.941 2.78415 131.621 2.63442 131.941C4.60113 128.568 7.24772 127.086 10.8736 126.853C12.4519 126.821 13.8601 126.316 15.6084 126.756C13.6497 124.257 11.8408 121.438 9.41268 119.107C8.43334 117.858 7.45401 116.608 6.77413 114.718C6.1145 113.62 2.8973 111.306 1.95844 111.643C-0.388686 112.484 -2.92603 112.06 -5.12343 112.581C-5.59286 112.749 -6.06228 112.918 -6.68143 113.406C-9.28753 116.475 -9.28753 116.475 -7.45836 120.087L-7.28839 120.56C-5.81939 122.434 -5.28925 124.645 -3.82025 126.519C-1.56213 128.377 0.226568 130.403 2.63442 131.941ZM48.4677 53.0864C48.7874 53.2386 48.7874 53.2386 48.4677 53.0864C48.7671 52.4455 49.0666 51.8047 49.0463 51.0116C49.0261 50.2186 49.3255 49.5777 49.9649 49.882C50.6043 50.1863 50.4546 50.5067 50.1551 51.1476C49.8759 52.5815 49.7464 53.695 49.4672 55.1289C49.1678 55.7698 49.8072 56.0741 50.2766 55.9058C50.5963 56.058 50.746 55.7375 50.576 55.2649C50.7258 54.9445 50.7258 54.9445 50.8755 54.6241C51.175 53.9832 50.6651 52.5654 51.9438 53.174C52.9029 53.6304 51.9843 54.7601 51.8346 55.0805C51.0859 56.6827 51.4259 57.6279 52.8747 58.7091C53.1741 58.0682 53.0041 57.5956 53.3036 56.9547C53.1336 56.4821 53.1134 55.6891 54.2222 55.8251C55.0113 55.8089 54.5621 56.7703 54.7321 57.2429C54.3032 58.9972 53.7245 61.0721 55.9624 62.1371C56.2618 61.4962 56.3913 60.3827 56.3711 59.5897C56.5208 59.2692 56.5006 58.4762 57.14 58.7805C57.6094 58.6122 57.6296 59.4052 57.4799 59.7257C57.3302 60.0461 57.5001 60.5187 57.2007 61.1596C56.1526 63.4027 56.363 65.4614 57.832 67.3356C58.1113 65.9017 58.5604 64.9403 58.8396 63.5064C59.1391 62.8655 59.1391 62.8655 59.6085 62.6972C60.3977 62.6811 60.5676 63.1537 60.2682 63.7946C59.6693 65.0763 60.0294 66.8146 58.6414 68.1125C58.4917 68.4329 58.4917 68.4329 58.4917 68.4329C58.9813 69.0577 59.1715 70.3233 60.1306 70.7797C60.3208 72.0454 61.2799 72.5018 62.409 73.4308C62.6882 71.9969 63.2871 70.7151 63.5663 69.2812C63.8658 68.6403 64.0155 68.3199 64.3352 68.472C65.1243 68.4559 64.8249 69.0968 64.6752 69.4172C64.5457 70.5307 64.4162 71.6442 63.8173 72.9259C63.2184 74.2077 63.4086 75.4733 64.5376 76.4024C64.5376 76.4024 64.3879 76.7228 64.8573 76.5545L65.0071 76.2341C65.4562 75.2728 65.7355 73.8388 66.1846 72.8775C66.3344 72.5571 66.3141 71.764 66.9535 72.0683C67.5929 72.3726 67.4432 72.6931 67.1437 73.3339C66.6945 74.2953 66.7148 75.0883 66.2656 76.0496C65.9662 76.6905 65.6667 77.3314 65.6869 78.1245C66.6865 80.167 68.1555 82.0412 69.4748 84.2358C69.584 82.3293 70.013 80.575 70.7616 78.9727C70.9113 78.6523 70.8911 77.8593 71.5305 78.1636C72.1699 78.4679 72.0202 78.7883 71.7207 79.4292C71.2918 81.1836 71.0125 82.6175 70.2639 84.2197C69.8147 85.181 69.8349 85.9741 70.3448 87.3918C71.0733 84.9966 72.1214 82.7535 73.0197 80.8308C73.1695 80.5104 72.8295 79.5652 73.4689 79.8695C74.1083 80.1738 74.2783 80.6464 73.9788 81.2873C73.0804 83.2099 72.5018 85.2847 71.6034 87.2074C70.5351 88.6575 71.3444 89.4344 72.0041 90.5317C72.174 91.0043 72.4937 91.1564 72.9632 90.9881L73.2626 90.3472C73.8413 88.2724 74.25 85.725 74.8287 83.6502C75.1281 83.0093 75.5773 82.048 75.8768 81.4071C76.0265 81.0867 76.4959 80.9184 76.8156 81.0705C77.455 81.3748 76.9856 81.5431 76.6861 82.184C76.3867 82.8249 76.2369 83.1453 75.9375 83.7862C75.2091 86.1815 74.8004 88.7289 74.2217 90.8037C73.9223 91.4446 73.6228 92.0855 73.7928 92.558C74.6021 93.3349 74.7923 94.6006 75.7514 95.057C76.7105 95.5135 76.8805 95.986 76.9007 96.7791C77.3701 96.6108 77.5199 96.2903 77.6696 95.9699C78.4182 94.3677 78.8472 92.6133 79.5958 91.0111C79.8953 90.3702 80.1948 89.7293 81.1538 90.1858C81.7932 90.4901 81.1741 90.9788 80.8746 91.6197L80.7249 91.9401C79.8265 93.8628 79.7375 96.5623 77.8801 98.0286C77.8801 98.0286 77.4106 98.1968 77.7303 98.349C78.5397 99.1259 77.9408 100.408 78.7501 101.185C79.5595 101.961 79.26 102.602 78.1715 103.259C79.3005 104.188 80.3891 103.531 81.4979 103.667C82.6068 103.803 83.2259 103.315 82.716 101.897C82.5663 102.217 82.5663 102.217 82.5663 102.217C82.4165 102.538 81.7974 103.026 81.4777 102.874C81.158 102.722 81.4574 102.081 81.6072 101.761C82.0564 100.8 82.975 99.6699 83.4241 98.7086C83.5739 98.3881 83.8733 97.7472 84.5127 98.0515C85.1521 98.3558 85.1724 99.1489 84.7029 99.3171C84.5532 99.6376 84.0838 99.8059 84.5734 100.431C85.9615 99.1327 87.3495 97.8348 88.7376 96.5369C89.3567 96.0481 89.9759 95.5594 90.4655 96.1841C91.4449 97.4336 91.8941 96.4723 92.1935 95.8314C92.8127 95.3426 93.4318 94.8539 94.2209 94.8378C92.2623 92.3388 90.1539 90.1603 88.1952 87.6613C86.5765 86.1076 86.5158 83.7284 84.8971 82.1747C81.6394 78.2741 78.3817 74.3735 75.2737 70.1525C73.315 67.6535 71.0367 65.0024 68.3091 63.3126C66.5407 62.0793 64.922 60.5255 63.6027 58.3309C62.7731 56.761 61.474 55.3593 59.8756 54.5986C58.9165 54.1421 57.9371 52.8927 57.1278 52.1158C54.04 48.6878 49.7342 47.0303 45.5297 49.338C46.6385 49.474 46.509 50.5875 47.3184 51.3644L47.4681 51.0439C47.7675 50.403 48.067 49.7621 48.7064 50.0664C49.3458 50.3707 48.7266 50.8595 48.8966 51.3321C48.4272 51.5004 48.4474 52.2934 48.4677 53.0864ZM57.2131 98.7688C57.4033 100.034 57.2738 101.148 57.4641 102.414L57.7838 102.566C58.9816 100.002 60.1794 97.4386 61.3772 94.8751C63.2954 95.788 60.9483 96.6294 61.6079 97.7268C62.5468 97.3902 62.996 96.4288 63.6354 96.7331C64.2748 97.0374 64.4245 96.717 64.8939 96.5487C65.8125 95.4191 67.0508 94.4416 67.8197 93.6324C68.2891 93.4641 68.2689 92.6711 68.9083 92.9754C69.398 93.6001 68.7788 94.0889 68.6291 94.4093C67.8602 95.2185 66.7716 95.8755 65.853 97.0051L65.7033 97.3256L66.023 97.4777C66.6624 97.782 66.9618 97.1411 67.1116 96.8207C68.0302 95.6911 69.1187 95.034 69.8876 94.2249C70.5068 93.7361 71.4456 93.3995 71.6358 94.6652C71.4861 94.9856 71.8058 95.1378 71.9555 94.8173C72.1053 94.4969 72.5747 94.3286 72.255 94.1764C71.9353 94.0243 71.7653 93.5517 71.7653 93.5517C70.3166 92.4705 69.3372 91.221 68.6574 89.3306C67.4878 86.8155 66.7877 84.1321 65.1487 81.7853C63.5098 79.4385 62.3402 76.9234 60.5515 74.8971C57.9535 72.0938 56.1445 69.2744 54.6351 65.8141C53.9552 63.9237 52.8059 62.2017 51.5068 60.8C48.9088 57.9968 46.6304 55.3457 45.1209 51.8854C44.5908 49.6746 43.1218 47.8004 40.4347 47.6967C39.6456 47.7128 39.156 47.0881 38.5166 46.7838C37.2378 46.1752 35.8093 45.887 34.5507 46.0715C31.8636 45.9678 29.3668 47.1297 26.7 47.819C30.0669 49.8131 32.0458 53.1051 34.0247 56.3971C34.2837 54.1701 35.0323 52.5679 36.1007 51.1178C36.2504 50.7974 36.5499 50.1565 37.1892 50.4608C37.8286 50.7651 37.5292 51.406 37.2297 52.0469C36.6308 53.3287 36.0319 54.6104 35.433 55.8922C34.3646 57.3423 34.7248 59.0805 35.7042 60.33C36.3638 61.4273 37.1934 62.9972 38.1727 64.2467C38.3427 64.7193 39.0023 65.8166 39.6215 65.3279C40.0909 65.1596 40.3904 64.5187 40.3701 63.7257C40.8193 62.7643 41.4182 61.4826 41.8674 60.5212C42.0171 60.2008 42.3166 59.5599 42.956 59.8642C43.5954 60.1685 42.9762 60.6572 42.8265 60.9777C42.527 61.6186 42.3976 62.732 42.0981 63.3729C41.4992 64.6547 40.9003 65.9365 39.8117 66.5935C40.3014 67.2182 40.791 67.843 41.131 68.7882C41.5801 67.8268 41.5599 67.0338 41.8594 66.3929C42.3085 65.4316 42.5878 63.9977 43.3566 63.1885C43.5064 62.868 43.9758 62.6997 44.2955 62.8519C44.6152 63.004 44.4655 63.3245 44.3157 63.6449C43.5671 65.2471 42.8185 66.8494 42.0698 68.4516C41.7704 69.0925 41.4507 68.9403 40.6615 68.9565C41.4709 69.7334 41.6611 70.999 42.6202 71.4554C43.6885 70.0054 43.6481 68.4193 44.3967 66.8171C44.5464 66.4966 44.5262 65.7036 45.1656 66.0079C45.805 66.3122 45.6552 66.6326 45.6755 67.4257C45.546 68.5391 45.2668 69.9731 44.3482 71.1027C43.4296 72.2323 43.7695 73.1775 44.8986 74.1065C45.6472 72.5043 46.0761 70.7499 46.8248 69.1477C46.9745 68.8273 46.9543 68.0343 47.5937 68.3385C48.2331 68.6428 48.0833 68.9633 47.9336 69.2837C47.4844 70.2451 47.3549 71.3585 46.9058 72.3199C45.2183 74.2587 45.8981 76.149 47.1972 77.5507C47.5169 77.7028 47.3671 78.0233 47.3671 78.0233C48.0268 79.1206 48.3667 80.0658 49.6455 80.6744C50.4953 83.0373 51.6649 85.5524 53.6033 87.2584C54.5826 88.5078 55.0521 88.3395 56.1204 86.8895C56.5696 85.9281 57.0188 84.9668 57.468 84.0055C57.6177 83.685 58.2368 83.1963 58.5565 83.3484C59.1959 83.6527 58.8965 84.2936 58.7468 84.6141C58.1478 85.8958 57.5489 87.1776 56.4603 87.8346C54.7526 88.9804 55.2625 90.3982 55.9222 91.4955C56.4321 92.9133 56.6223 94.1789 56.9622 95.1241C57.0027 96.7102 56.8732 97.8237 57.2131 98.7688ZM5.32487 51.7476C5.17515 52.0681 5.17515 52.0681 5.49484 52.2202C7.60323 54.3987 8.62304 57.2343 10.1123 59.9015C11.6015 62.5688 12.6213 65.4043 13.7909 67.9194C14.3008 69.3372 15.7495 70.4184 16.2594 71.8362C17.429 74.3513 18.4286 76.3938 20.0675 78.7406C20.5572 79.3653 21.0469 79.9901 21.5365 80.6148C23.5154 83.9068 25.6441 86.8783 28.0924 90.002C31.0304 93.7505 34.7575 97.4828 35.0489 102.714C35.2189 103.186 35.2391 103.979 36.0283 103.963C36.8174 103.947 36.5179 104.588 35.8988 105.077C34.8102 105.734 33.7419 107.184 32.6533 107.841C31.5647 108.498 32.6938 109.427 32.3943 110.068C32.2446 110.388 33.0539 111.165 33.5234 110.997C35.4213 111.117 37.3192 111.236 38.857 109.618C36.9186 107.912 36.9186 107.912 35.0611 109.378C34.9114 109.699 34.5917 109.547 34.442 109.867C33.9725 110.035 33.8228 110.356 33.1834 110.051C32.6938 109.427 33.1632 109.258 33.6326 109.09C35.0409 108.585 34.9802 106.206 36.7081 105.853C36.8376 104.74 37.2868 103.779 38.0557 102.969C38.2054 102.649 38.3551 102.329 38.0354 102.176C37.396 101.872 37.5458 101.552 37.6955 101.231C38.2944 99.9494 38.8933 98.6677 39.4923 97.3859C39.642 97.0654 39.6217 96.2724 40.2611 96.5767C40.9005 96.881 40.6011 97.5219 40.4513 97.8423C40.0022 98.8037 39.553 99.765 39.2738 101.199C40.3623 100.542 40.9815 100.053 41.7504 99.244C42.2198 99.0757 42.3695 98.7552 43.0089 99.0595C43.4986 99.6842 43.6483 99.3638 44.1177 99.1955C44.7369 98.7068 45.5058 97.8976 46.4446 97.561C46.9141 97.3927 47.5332 96.904 47.7032 97.3766C48.5125 98.1534 49.1317 97.6647 49.7508 97.176C50.2203 97.0077 50.6897 96.8394 50.8597 97.312C51.0296 97.7845 50.5602 97.9528 50.4105 98.2733C49.3219 98.9303 48.2333 99.5874 47.4644 100.397C48.1038 100.701 48.723 100.212 48.8727 99.8917C49.9613 99.2346 50.7302 98.4254 51.9685 97.448C52.4379 97.2797 52.7374 96.6388 53.3768 96.9431C54.0162 97.2474 53.0773 97.584 53.2473 98.0565C53.7167 97.8883 54.3359 97.3995 54.8053 97.2312C55.2747 97.0629 55.4244 96.7425 55.2545 96.2699C54.8943 94.5317 54.3641 92.3209 54.004 90.5826C53.0854 91.7123 52.2962 91.7284 52.5957 91.0875C53.0246 89.3332 51.5759 88.252 50.9162 87.1546C48.2575 81.9723 45.2992 77.4308 42.0213 72.7372C40.3621 69.5974 38.2334 66.6258 36.1048 63.6543C34.2959 60.8349 32.7864 57.3746 30.9775 54.5552C28.0192 50.0137 24.4621 46.754 19.6666 44.4718C16.7893 43.1025 13.9525 43.3192 10.7961 43.3838C9.53751 43.5682 8.59866 43.9048 7.48983 43.7688C5.91159 43.8011 4.6328 43.1925 3.24477 44.4904C3.09504 44.8109 2.45565 44.5066 1.66652 44.5227C1.19709 44.691 0.238005 44.2346 -0.721086 43.7782C0.258247 45.0276 0.598183 45.9728 1.40755 46.7497C2.55685 48.4718 3.70615 50.1938 5.32487 51.7476ZM-23.3062 43.6056C-23.4559 43.926 -23.4559 43.926 -23.3062 43.6056C-22.9865 43.7577 -23.1362 44.0781 -23.3062 43.6056C-22.857 42.6442 -22.4078 41.6829 -21.9586 40.7216C-21.8089 40.4011 -21.3597 39.4398 -20.7203 39.7441C-20.0809 40.0484 -20.3804 40.6893 -20.6798 41.3302C-21.2788 42.6119 -21.7077 44.3663 -21.9869 45.8002C-21.5377 44.8389 -21.2383 44.198 -20.7891 43.2367C-20.6394 42.9162 -20.1699 42.7479 -19.8502 42.9001C-19.5305 43.0522 -19.6803 43.3727 -19.83 43.6931C-20.2792 44.6544 -20.2589 45.4475 -20.7081 46.4088C-21.4568 48.011 -21.4568 48.011 -19.8583 48.7718C-19.749 46.8653 -19.3201 45.1109 -18.2518 43.6608C-18.102 43.3404 -17.9523 43.0199 -17.6326 43.1721C-17.3129 43.3242 -17.1429 43.7968 -17.2927 44.1173C-17.5921 44.7581 -18.0413 45.7195 -18.0211 46.5125C-18.1506 47.626 -18.7495 48.9078 -18.5593 50.1734C-18.4095 49.8529 -18.2598 49.5325 -18.1101 49.2121C-17.8106 48.5712 -18.1708 46.833 -17.062 46.969C-16.1029 47.4254 -17.0215 48.555 -17.151 49.6685C-17.2805 50.782 -17.6002 50.6298 -16.4711 51.5589C-16.5116 49.9728 -15.2733 48.9953 -14.9941 47.5614C-14.6946 46.9205 -14.8646 46.4479 -14.2252 46.7522C-13.5858 47.0565 -13.4158 47.5291 -13.7153 48.17C-14.3142 49.4518 -14.7634 50.4131 -15.0426 51.847C-15.4918 52.8083 -15.941 53.7697 -14.8119 54.6987C-14.8119 54.6987 -14.8119 54.6987 -14.6419 55.1713L-14.4922 54.8509C-14.043 53.8895 -14.0633 53.0965 -13.6141 52.1352C-13.4643 51.8147 -13.3146 51.4943 -12.6752 51.7986C-12.0358 52.1029 -12.5053 52.2712 -12.3353 52.7438C-12.7845 53.7051 -12.7642 54.4981 -13.2134 55.4595C-13.6626 56.4208 -13.4926 56.8934 -13.003 57.5181C-12.5538 56.5568 -12.744 55.2912 -11.8254 54.1615C-11.6756 53.8411 -11.3762 53.2002 -10.7368 53.5045C-10.0974 53.8088 -10.3969 54.4497 -10.5466 54.7701C-11.1455 56.0519 -11.105 57.638 -11.7039 58.9197C-12.0034 59.5606 -11.9831 60.3537 -11.0241 60.8101C-10.5749 59.8488 -10.4454 58.7353 -9.9962 57.774C-9.84647 57.4535 -9.69674 57.1331 -9.22731 56.9648C-8.43819 56.9486 -8.73765 57.5895 -8.56768 58.0621C-9.01687 59.0234 -8.99663 59.8165 -9.44581 60.7778C-10.0447 62.0596 -10.3239 63.4935 -8.87519 64.5747C-8.27627 63.2929 -8.14678 62.1794 -7.54787 60.8977C-7.39814 60.5772 -7.24841 60.2568 -6.60902 60.5611C-6.28932 60.7132 -6.11936 61.1858 -6.26908 61.5063C-6.56854 62.1471 -7.01772 63.1085 -6.99748 63.9015C-7.42643 65.6559 -7.70565 67.0898 -6.87604 68.6597L-6.55634 68.8119L-6.40661 68.4914C-6.1274 67.0575 -5.99791 65.944 -5.399 64.6622C-5.24927 64.3418 -5.41924 63.8692 -4.94981 63.7009C-4.16069 63.6848 -3.99072 64.1574 -4.29018 64.7982C-4.41967 65.9117 -4.86885 66.8731 -4.84861 67.6661C-4.6584 68.9317 -6.04644 70.2296 -4.74741 71.6313C-4.89714 71.9517 -4.57744 72.1039 -4.25774 72.256C-3.78832 72.0877 -4.10802 71.9356 -4.27798 71.463C-4.31846 69.8769 -4.20922 67.9704 -3.46057 66.3682C-3.16112 65.7273 -2.86166 65.0864 -1.90257 65.5428C-1.26318 65.8471 -1.88233 66.3359 -2.18179 66.9768C-3.08016 68.8994 -3.33913 71.1264 -2.80899 73.3372C-2.3598 72.3759 -2.06034 71.735 -1.93086 70.6215C-1.78113 70.301 -1.48167 69.6602 -0.842276 69.9645C-0.202886 70.2687 -0.672307 70.437 -0.502336 70.9096C-0.801793 71.5505 -0.631822 72.0231 -0.931279 72.664C-1.36023 74.4184 -2.57829 76.1889 -1.42899 77.911C-1.42899 77.911 -1.57872 78.2314 -1.25902 78.3835L-1.10929 78.0631C-0.830081 76.6292 -0.550865 75.1953 -0.27165 73.7613C-0.121922 73.4409 0.177537 72.8 0.966661 72.7839C1.75579 72.7677 0.986897 73.5769 1.3066 73.729C1.64653 74.6742 1.19735 75.6356 0.748164 76.5969C0.618676 77.7104 0.0197625 78.9921 0.679394 80.0895C0.829121 79.769 1.12858 79.1281 1.27831 78.8077C1.10834 78.3351 1.25807 78.0147 1.57776 78.1668C1.89746 78.319 2.21716 78.4711 2.38713 78.9437C2.5571 79.4163 2.40737 79.7367 2.25764 80.0572C1.97842 81.4911 1.22978 83.0933 1.90966 84.9837C1.90966 84.9837 1.90966 84.9837 1.75993 85.3041C1.75993 85.3041 1.75993 85.3041 1.90966 84.9837C1.90966 84.9837 1.90966 84.9837 1.58996 84.8315C2.20912 84.3428 2.03915 83.8702 2.18887 83.5498C2.31837 82.4363 2.44786 81.3228 3.21673 80.5136C3.36646 80.1932 3.34622 79.4001 3.98561 79.7044C4.62501 80.0087 4.47529 80.3292 4.49553 81.1222C4.2163 82.5561 4.10706 84.4626 3.82784 85.8966C3.69836 87.01 3.71859 87.8031 4.20826 88.4278C4.82742 87.9391 4.33775 87.3143 4.48748 86.9939C4.63721 86.6734 4.78693 86.353 5.10663 86.5052C5.42633 86.6573 5.2766 86.9777 5.44657 87.4503C5.31708 88.5638 5.03786 89.9977 4.90837 91.1112C4.62916 92.5451 4.9691 93.4903 6.09816 94.4194C6.20741 92.5128 4.88814 90.3182 6.89533 88.5315C7.04505 88.2111 7.02482 87.418 7.98391 87.8745C8.6233 88.1788 8.32384 88.8197 8.17411 89.1401C7.10578 90.5902 7.29599 91.8558 7.33647 93.4419C7.52668 94.7075 7.71689 95.9731 7.11798 97.2549C6.96825 97.5753 7.13821 98.0479 7.45791 98.2001C8.05682 96.9183 8.18631 95.8048 8.46553 94.3709C8.61526 94.0505 8.44529 93.5779 8.91472 93.4096C9.23441 93.5617 9.55411 93.7139 9.72408 94.1865C9.59459 95.2999 9.93452 96.2451 9.80504 97.3586C9.05639 98.9608 9.09688 100.547 9.92648 102.117C10.0964 102.589 9.00787 103.246 10.2867 103.855C11.0353 102.253 11.7839 100.651 12.2129 98.8962C12.5123 98.2553 12.8118 97.6145 13.4512 97.9188C14.2403 97.9026 13.4714 98.7118 13.6414 99.1844C13.5524 101.884 11.5654 104.464 12.905 107.451C12.905 107.451 12.7552 107.772 12.6055 108.092C12.4558 108.413 12.1361 108.261 11.8164 108.108C11.3267 107.484 10.3676 107.027 9.87795 106.402C8.59916 105.794 7.61983 104.544 7.25965 102.806C6.38957 99.6502 5.05006 96.6625 3.56082 93.9952C1.41195 90.2306 -0.117775 85.9773 -2.11692 81.8923C-3.60616 79.225 -4.32651 75.7486 -6.28518 73.2496C-7.58421 71.848 -8.26408 69.9576 -9.09368 68.3877C-11.7322 63.9984 -13.7516 59.1203 -16.8596 54.8993C-17.3492 54.2746 -17.8389 53.6498 -18.1586 53.4977C-19.6074 52.4165 -21.0561 51.3353 -21.8857 49.7654C-23.5449 46.6255 -25.9933 43.5018 -28.1219 40.5303C-29.6111 37.863 -30.8899 37.2545 -32.1687 36.6459C-35.7056 34.1792 -39.372 32.826 -43.6576 31.9616C-46.5146 31.3853 -49.3716 30.809 -52.4876 32.4596C-53.5762 33.1167 -54.5151 33.4533 -55.6037 34.1103C-57.9508 34.9518 -58.4 35.9131 -58.489 38.6127C-57.8698 38.1239 -57.8901 37.3309 -57.2709 36.8422C-57.4409 36.3696 -56.8217 35.8808 -56.6518 36.3534C-56.4818 36.826 -56.6315 37.1465 -56.7812 37.4669C-57.8496 38.917 -58.5982 40.5192 -59.3469 42.1214C-60.0955 43.7236 -59.7353 45.4618 -59.3752 47.2001C-58.7762 45.9183 -58.7965 45.1252 -58.667 44.0118C-58.4283 40.9918 -56.8905 39.3734 -54.5636 37.7389C-54.0942 37.5706 -53.9444 37.2502 -53.4548 37.8749C-52.9651 38.4996 -53.4345 38.6679 -53.904 38.8362C-55.1423 39.8137 -55.1018 41.3998 -55.8504 43.002C-56.0002 43.3224 -55.9799 44.1155 -56.1297 44.4359C-57.0078 47.1516 -57.0968 49.8512 -54.9884 52.0297C-54.9884 52.0297 -54.8184 52.5023 -54.6687 52.1818C-54.6687 52.1818 -54.6687 52.1818 -54.8387 51.7092C-55.1988 49.971 -55.0896 48.0645 -54.6607 46.3101C-54.2317 44.5558 -53.9727 42.3288 -52.265 41.183C-51.7956 41.0147 -51.4961 40.3739 -51.0065 40.9986C-50.8365 41.4712 -50.9862 41.7916 -51.4556 41.9599C-53.742 45.1805 -54.1305 48.5209 -53.0905 52.1495C-52.9002 53.4152 -53.2199 53.263 -54.3288 53.127C-53.3697 53.5834 -53.3494 54.3765 -52.3903 54.8329C-52.4106 54.0399 -52.5805 53.5673 -52.2811 52.9264C-52.1718 51.0199 -52.0626 49.1134 -50.6746 47.8155C-50.5248 47.495 -50.0756 46.5337 -49.586 47.1584C-48.9466 47.4627 -49.5657 47.9515 -49.8652 48.5924C-50.9133 50.8355 -51.1723 53.0624 -50.7919 55.5937C-49.8935 53.671 -49.3148 51.5962 -48.7361 49.5214C-48.5864 49.2009 -48.287 48.5601 -47.9673 48.7122C-47.3279 49.0165 -47.6273 49.6574 -47.777 49.9778C-48.3557 52.0526 -48.9344 54.1274 -49.5131 56.2023C-49.7923 57.6362 -49.9218 58.7497 -48.3233 59.5104C-48.8737 56.5066 -47.9955 53.7909 -47.4371 50.923C-47.1579 49.4891 -46.219 49.1525 -45.1305 48.4955C-44.661 48.3272 -44.1916 48.1589 -44.0216 48.6315C-43.8517 49.1041 -44.0014 49.4245 -44.4708 49.5928C-45.09 50.0815 -45.5594 50.2498 -45.5392 51.0429C-47.1659 55.3608 -47.8539 59.3421 -45.6847 63.8997C-45.3853 63.2588 -45.2356 62.9384 -45.0858 62.6179C-44.3777 59.4297 -42.5404 57.1704 -40.0638 55.2154C-39.5944 55.0471 -39.4447 54.7267 -38.8053 55.031C-38.6353 55.5036 -38.785 55.824 -39.2545 55.9923C-39.5539 56.6332 -40.0234 56.8015 -40.6425 57.2903C-42.6497 59.0769 -43.6978 61.32 -44.1065 63.8674C-44.236 64.9809 -44.5354 65.6218 -44.6649 66.7353C-45.1141 67.6966 -44.9441 68.1692 -44.1348 68.9461C-43.9851 68.6256 -43.9851 68.6256 -43.8353 68.3052C-43.4064 66.5508 -42.508 64.6282 -41.7594 63.0259C-41.4599 62.3851 -40.9905 62.2168 -40.6708 62.3689C-40.0314 62.6732 -40.3309 63.3141 -40.4806 63.6345C-40.78 64.2754 -41.0795 64.9163 -41.3789 65.5572C-42.2773 67.4799 -43.026 69.0821 -42.9652 71.4612C-42.8155 71.1407 -42.8155 71.1407 -42.6658 70.8203C-42.1276 67.1594 -39.1815 65.0362 -37.1946 62.4565C-37.0449 62.136 -36.4257 61.6473 -36.2557 62.1199C-35.6164 62.4242 -36.2355 62.9129 -36.3852 63.2334C-36.9842 64.5151 -37.9028 65.6448 -39.1411 66.6222C-41.9171 69.2181 -41.6662 72.8628 -41.735 76.3554C-41.2858 75.3941 -41.1563 74.2806 -40.8568 73.6397C-40.2782 71.5649 -39.0601 69.7944 -38.1617 67.8717C-37.8623 67.2308 -37.2431 66.7421 -36.6037 67.0464C-35.6446 67.5028 -36.7332 68.1599 -36.8829 68.4803C-39.0196 71.3804 -39.8775 74.8892 -40.7354 78.3979C-40.8851 78.7184 -41.1846 79.3592 -40.6949 79.984C-40.2457 79.0226 -40.1162 77.9092 -39.9868 76.7957C-39.5983 73.4553 -37.931 70.7234 -36.0938 68.4642C-35.4747 67.9754 -35.0255 67.0141 -34.5358 67.6388C-33.7265 68.4157 -34.815 69.0727 -35.1145 69.7136C-36.9517 71.9729 -38.1495 74.5364 -38.708 77.4043C-38.9872 78.8382 -38.3073 80.7286 -40.3347 81.7222L-40.1648 82.1948C-39.8248 83.14 -39.4849 84.0852 -38.8253 85.1825C-38.6755 84.862 -38.6755 84.862 -38.5258 84.5416C-38.6068 81.3694 -36.9395 78.6376 -35.592 75.7536C-35.2925 75.1127 -34.6733 74.624 -34.2039 74.4557C-34.0542 74.1352 -33.5848 73.967 -33.4148 74.4395C-33.0951 74.5917 -33.2448 74.9121 -33.3946 75.2326C-34.1634 76.0418 -34.4629 76.6826 -34.9121 77.644C-36.1099 80.2075 -37.158 82.4506 -37.5667 84.998C-37.5465 85.7911 -37.8459 86.432 -37.506 87.3771C-35.8468 90.517 -32.9493 92.6794 -31.2901 95.8192C-30.8004 96.4439 -30.7802 97.237 -29.8211 97.6934C-29.6916 96.5799 -29.5621 95.4665 -29.5823 94.6734C-29.7928 92.6148 -29.2141 90.5399 -28.3157 88.6173C-28.0163 87.9764 -27.8666 87.656 -27.2272 87.9603C-26.5878 88.2645 -27.2069 88.7533 -27.037 89.2259C-27.7654 91.6211 -28.0243 93.8481 -28.2833 96.0751C-28.2631 96.8681 -27.7532 98.2859 -29.1614 98.7907C-29.6309 98.959 -29.3112 99.1112 -29.3112 99.1112C-28.1619 100.833 -27.0126 102.555 -25.0944 103.468C-25.495 100.144 -24.6169 97.4282 -23.2694 94.5442C-23.1196 94.2238 -22.8202 93.5829 -22.1808 93.8872C-21.8611 94.0394 -21.6911 94.5119 -21.9906 95.1528C-22.29 95.7937 -22.5895 96.4346 -22.8889 97.0755C-23.937 99.3186 -24.026 102.018 -23.6456 104.549C-23.4554 105.815 -21.7072 106.255 -21.0476 107.353C-20.7279 107.505 -20.7279 107.505 -20.5579 107.977C-20.5579 107.977 -20.7076 108.298 -20.2382 108.13L-20.0885 107.809C-20.6389 104.805 -20.2302 102.258 -18.8826 99.3739C-18.5831 98.733 -18.7734 97.4673 -17.8143 97.9238C-17.1749 98.2281 -17.6241 99.1894 -17.9235 99.8303C-18.8016 102.546 -19.3601 105.414 -18.8097 108.418C-18.6397 108.89 -19.2589 109.379 -18.7692 110.004C-17.1302 112.351 -15.1716 114.85 -12.614 116.067C-11.9746 116.371 -11.5052 116.203 -11.2057 115.562C-9.98765 113.791 -8.44988 112.173 -6.91212 110.555C-5.99351 109.425 -4.90493 108.768 -3.66662 107.79C-3.19719 107.622 -2.72778 107.454 -2.5578 107.926C-2.06814 108.551 -2.85726 108.567 -3.00699 108.888C-3.94584 109.224 -4.71472 110.034 -5.63333 111.163C-4.52451 111.299 -3.58566 110.963 -2.96651 110.474C-1.57847 109.176 -0.0204683 108.351 1.21784 107.373C1.68726 107.205 2.30642 106.716 2.4764 107.189C2.64636 107.661 2.64636 107.661 3.11579 107.493C3.58521 107.325 3.88467 106.684 4.52407 106.988C4.99349 106.82 5.31318 106.972 5.48315 107.445C5.65312 107.917 5.1837 108.085 4.71427 108.254C3.60545 108.118 3.15627 109.079 2.53711 109.568C2.38738 109.888 1.59826 109.904 2.08793 110.529C2.40762 110.681 3.21698 111.458 3.51644 110.817C3.66617 110.497 3.96563 109.856 4.43505 109.688C5.20394 108.878 5.65313 107.917 6.59198 107.581C7.21113 107.092 7.53083 107.244 8.02049 107.869C8.19046 108.341 8.36043 108.814 7.891 108.982C5.99306 108.862 5.41439 110.937 4.17608 111.915C5.45487 112.523 6.58393 113.452 7.39329 114.229C7.88296 114.854 8.35239 114.686 8.67208 114.838C10.57 114.958 10.57 114.958 12.2575 113.019C11.6181 112.714 11.3187 113.355 10.6995 113.844C10.2301 114.012 9.93063 114.653 9.76066 114.181C9.27099 113.556 9.74042 113.388 10.2098 113.219C10.829 112.731 11.5979 111.921 11.2579 110.976C11.2579 110.976 11.4077 110.656 11.5574 110.335C12.646 109.678 12.7755 108.565 13.5444 107.756C14.463 106.626 15.3816 105.496 16.6199 104.519C17.0893 104.351 17.7085 103.862 18.1981 104.487C18.6878 105.111 18.2184 105.28 17.5992 105.768C16.9598 105.464 16.0412 106.594 15.1428 108.516C16.0817 108.18 16.8708 108.164 17.32 107.202C17.9189 105.921 18.8375 104.791 20.0758 103.813C20.695 103.325 21.4436 101.722 22.7427 103.124C22.7427 103.124 23.2121 102.956 23.3618 102.635C23.8312 102.467 24.1307 101.826 24.6001 101.658C25.0695 101.49 25.369 100.849 25.8587 101.473C26.4981 101.778 25.8789 102.266 25.7292 102.587C25.4095 102.435 25.2598 102.755 25.11 103.076C25.28 103.548 25.5794 102.907 25.5794 102.907C26.0489 102.739 26.668 102.25 27.1375 102.082C27.6069 101.914 28.226 101.425 28.396 101.898C28.8857 102.522 27.9468 102.859 27.4774 103.027C26.3888 103.684 25.1505 104.662 24.3816 105.471C25.9801 106.232 25.6604 106.079 26.8987 105.102C28.137 104.125 29.5251 102.827 30.7634 101.849C31.2328 101.681 31.852 101.192 32.0219 101.665C32.5116 102.289 31.5727 102.626 31.1033 102.794C29.5453 103.62 28.307 104.597 27.3884 105.727C27.7081 105.879 28.0278 106.031 28.1775 105.711C29.7355 104.885 30.9536 103.115 32.3619 102.61L32.5116 102.289C32.0017 100.872 32.2809 99.4377 31.3016 98.1882C28.0034 92.7016 23.4669 88.1924 20.1687 82.7058C18.3598 79.8864 15.9317 77.5557 15.0616 74.3997C14.7217 73.4545 14.3818 72.5093 13.5724 71.7325C12.1034 69.8582 11.1038 67.8157 10.1042 65.7732C9.08443 62.9377 7.76516 60.743 6.27592 58.0757C4.12705 54.3112 1.82845 50.867 -0.789852 47.2707C-3.40815 43.6744 -6.49587 40.2465 -10.9514 38.9094C-14.6178 37.5562 -18.7131 37.9574 -22.509 37.7177C-24.237 38.0705 -24.8561 38.5592 -24.6255 41.4109C-24.7549 42.5244 -23.7959 42.9808 -23.3062 43.6056ZM40.4596 122.915C39.8 121.818 39.6098 120.552 38.8004 119.775C36.692 117.597 34.7334 115.098 32.625 112.919C30.8363 110.893 29.517 108.698 26.3403 107.97C24.1226 107.698 22.3744 107.258 20.4967 107.931C18.619 108.604 17.0813 110.222 15.0336 110.423C16.0129 111.672 16.9923 112.922 17.3322 113.867C18.522 117.175 20.9501 119.506 22.6093 122.646C22.9492 123.591 23.9083 124.047 24.5477 124.352C25.1871 124.656 25.3166 123.542 25.786 123.374C29.0315 120.61 32.1678 119.752 36.1539 121.258C37.4326 121.866 38.5617 122.795 40.4596 122.915ZM38.7963 107.239C39.7554 107.695 40.5647 108.472 41.5238 108.929C44.1016 110.939 45.4412 113.927 47.2501 116.746C47.4201 117.219 47.59 117.691 48.2092 117.202C51.9444 115.063 55.6795 112.924 60.4345 113.62C59.9448 112.995 59.3054 112.691 59.1355 112.218C57.1768 109.719 56.157 106.884 53.5792 104.873C50.5117 102.238 45.9267 102.015 42.3412 103.834C40.7832 104.659 40.0346 106.261 38.7963 107.239ZM81.3604 110.653C81.0205 109.707 80.5308 109.083 80.0411 108.458C78.5721 106.584 77.2731 105.182 75.6544 103.628C74.3553 102.227 72.7569 101.466 71.1584 100.705C68.6008 99.488 65.9137 99.3843 63.1174 101.187C61.4097 102.333 61.1507 104.56 62.7694 106.114C65.0276 107.972 67.2857 109.83 68.9246 112.177C69.5843 113.274 70.3734 113.258 71.462 112.601C74.7075 109.837 77.8235 108.186 81.3604 110.653ZM102.218 111.178C101.728 110.553 101.558 110.081 100.918 109.776C100.109 108.999 99.2998 108.222 98.7899 106.805C98.28 105.387 97.6001 103.497 95.5322 102.904C95.2125 102.752 94.8928 102.6 94.7228 102.127C92.2947 99.7966 87.8594 99.2526 85.0631 101.055C84.9134 101.376 84.5937 101.224 84.7637 101.696C84.7637 101.696 84.7839 102.489 85.0834 101.848C85.2331 101.528 85.5325 100.887 85.4031 102.001C85.4233 102.794 85.4435 103.587 85.9332 104.211C86.7628 105.781 88.2116 106.862 89.5106 108.264C90.32 109.041 90.9594 109.345 92.0479 108.688C92.6671 108.199 93.7759 108.335 94.4153 108.64C96.9729 109.857 99.3605 110.602 102.218 111.178ZM15.9888 129.287C13.2815 128.391 10.7644 128.76 8.09756 129.449C6.83901 129.633 5.6007 130.611 5.00179 131.893C4.10342 133.815 4.59308 134.44 6.34129 134.88C10.3072 135.593 13.2734 134.262 16.3692 131.819C18.2267 130.352 17.907 130.2 15.9888 129.287ZM49.3585 118.924C49.8684 120.342 50.8275 120.799 52.086 120.614C53.984 120.734 55.5622 120.702 57.1405 120.67C59.1882 120.469 60.5762 119.171 61.7943 117.401C62.2434 116.439 61.9237 116.287 61.2843 115.983C57.7677 114.309 54.5019 116.28 51.5357 117.61C50.5968 117.947 50.4673 119.06 49.3585 118.924ZM39.4115 125.158C37.8131 124.398 36.854 123.941 35.8949 123.485C33.0176 122.115 30.1808 122.332 27.5545 124.607C27.085 124.776 26.4659 125.264 26.9555 125.889C27.1255 126.362 27.6152 126.987 28.4043 126.97C31.8805 127.058 35.3364 126.352 39.4115 125.158ZM72.9107 113.682C74.6792 114.915 77.9854 114.53 79.8429 113.064C80.462 112.575 80.2921 112.103 79.8024 111.478C77.5645 110.413 73.9588 111.439 72.9107 113.682ZM55.1452 98.1764C53.9069 99.1539 53.138 99.9631 51.8997 100.941C52.7091 101.717 53.6682 102.174 54.1578 102.799C54.9672 103.575 55.4366 103.407 55.5661 102.294C55.6956 101.18 55.5054 99.9146 55.1452 98.1764ZM98.4621 112.524C96.8636 111.763 95.1154 111.323 93.5372 111.355C93.0678 111.524 92.4284 111.219 92.4486 112.013C92.2989 112.333 92.7885 112.958 93.1082 113.11C93.7476 113.414 94.387 113.718 95.3259 113.382C95.945 112.893 97.2036 112.709 98.4621 112.524ZM29.946 106.944C32.0341 108.329 32.6128 106.255 33.7014 105.598C34.1708 105.429 34.0008 104.957 33.8309 104.484C33.6609 104.011 33.1915 104.18 33.0417 104.5C31.9532 105.157 31.0345 106.287 29.946 106.944ZM56.7357 104.809C57.7555 107.644 59.273 105.233 60.3818 105.369C59.4025 104.12 57.6948 105.265 56.7357 104.809ZM71.0774 97.533C71.8665 97.5168 72.0567 98.7825 72.5059 97.8212C72.8054 97.1803 73.4245 96.6915 73.5743 96.3711C73.724 96.0506 74.1934 95.8823 73.8737 95.7302C73.7037 95.2576 73.2343 95.4259 73.0846 95.7463C72.3157 96.5555 71.6966 97.0443 71.0774 97.533ZM72.8459 98.7663C73.1656 98.9185 73.4853 99.0706 73.805 99.2228C74.4444 99.5271 74.7438 98.8862 75.0433 98.2453C75.193 97.9248 75.023 97.4523 74.7033 97.3001C74.0639 96.9958 73.9142 97.3163 73.7645 97.6367C73.9344 98.1093 73.465 98.2776 72.8459 98.7663ZM52.6281 98.5453C51.8592 99.3545 50.7707 100.012 50.0018 100.821L50.3215 100.973C51.0904 100.164 52.1789 99.5066 52.6281 98.5453ZM-0.449411 110.105C1.12884 110.073 1.57802 109.111 2.02721 108.15C1.25832 108.959 0.639171 109.448 -0.449411 110.105ZM2.64637 107.661C2.64637 107.661 2.49664 107.982 2.64637 107.661C2.49664 107.982 2.49664 107.982 2.49664 107.982C2.49664 107.982 2.49664 107.982 2.64637 107.661C2.81634 108.134 2.49664 107.982 2.64637 107.661ZM50.916 56.2101C50.916 56.2101 50.7663 56.5306 50.916 56.2101C50.7663 56.5306 50.7663 56.5306 50.916 56.2101C50.7663 56.5306 50.916 56.2101 50.916 56.2101ZM-50.1525 55.898C-50.6219 56.0663 -50.1525 55.898 -50.1525 55.898C-50.6219 56.0663 -50.3022 56.2184 -50.1525 55.898C-50.3022 56.2184 -50.3022 56.2184 -50.1525 55.898C-50.3022 56.2184 -50.3022 56.2184 -50.1525 55.898ZM-28.4128 97.1885C-28.5828 96.7159 -28.4128 97.1885 -28.4128 97.1885C-28.5828 96.7159 -28.7325 97.0364 -28.4128 97.1885C-28.7325 97.0364 -28.7325 97.0364 -28.4128 97.1885Z" fill="#040404"/>
<path id="Vector_2" d="M54.9141 98.4029C55.105 99.664 55.6171 101.077 55.3361 102.505C55.2057 103.615 54.7339 103.782 53.9206 103.008C53.1074 102.234 52.4649 101.93 51.6516 101.156C52.7458 100.502 53.6694 99.3764 54.9141 98.4029Z" fill="#040404"/>
<path id="Vector_3" d="M92.6382 99.0769C93.4098 98.2702 94.3518 97.9348 95.1234 97.128C95.4642 98.0707 96.7471 98.6781 95.5045 99.6526C95.3542 99.9721 95.6749 100.124 95.6749 100.124C96.4666 100.108 96.637 100.579 96.0157 101.067C95.3944 101.554 95.0737 101.402 94.9033 100.931C94.4122 100.308 93.921 99.6843 92.6382 99.0769C92.9589 99.2288 92.6382 99.0769 92.6382 99.0769Z" fill="#040404"/>
<path id="Vector_4" d="M29.6463 106.943C30.7418 106.289 31.6665 105.165 32.762 104.511C32.9128 104.192 33.3852 104.025 33.5561 104.495C33.727 104.966 34.0487 105.117 33.4255 105.604C32.33 106.258 31.7472 108.324 29.6463 106.943Z" fill="#040404"/>
<path id="Vector_5" d="M56.43 105.032C57.8593 105.321 59.2481 104.023 60.0781 105.593C58.9687 105.457 57.4502 107.867 56.43 105.032Z" fill="#040404"/>
<path id="Vector_6" d="M70.8639 97.9167C71.4878 97.4308 72.2626 96.626 72.8866 96.1401C73.0374 95.8213 73.5105 95.6541 73.6819 96.1245C74.0042 96.276 73.8533 96.5948 73.3802 96.762C73.0785 97.3995 72.4545 97.8855 72.3037 98.2043C71.8511 99.1606 71.1861 98.0683 70.8639 97.9167Z" fill="#040404"/>
<path id="Vector_7" d="M71.472 95.835C71.1702 96.4725 70.5462 96.9585 70.3953 97.2772C69.9427 98.2335 69.2981 97.9303 68.6536 97.6272C69.4285 96.8225 69.8811 95.8662 71.472 95.835C71.472 95.835 71.1497 95.6834 71.472 95.835Z" fill="#040404"/>
<path id="Vector_8" d="M72.6128 99.1554C73.0843 98.988 73.2346 98.6688 73.7061 98.5014C74.1776 98.334 74.1572 97.5436 74.6491 98.1666C74.9702 98.3184 75.141 98.7895 74.9906 99.1087C74.8403 99.428 74.5396 100.066 73.7469 100.082C73.5762 99.6109 73.255 99.4591 72.6128 99.1554Z" fill="#040404"/>
<path id="Vector_9" d="M52.4204 98.7499C51.8153 100.024 50.866 100.358 50.0888 101.162L49.7655 101.011C50.694 99.8881 51.3199 99.4025 52.4204 98.7499Z" fill="#040404"/>
<path id="Vector_10" d="M-0.762937 109.827C0.336405 109.175 0.96165 108.689 1.73805 107.885C1.28459 108.84 0.831133 109.796 -0.762937 109.827Z" fill="#040404"/>
<path id="Vector_11" d="M24.2417 103.512C23.7877 104.467 23.1616 104.953 22.2121 105.287C22.9895 104.483 23.4436 103.528 24.2417 103.512Z" fill="#040404"/>
<path id="Vector_12" d="M24.2443 103.521C24.0722 103.05 24.3951 103.202 24.5459 102.884C24.7181 103.354 24.7181 103.354 24.2443 103.521Z" fill="#040404"/>
<path id="Vector_13" d="M25.4925 102.556C25.4925 102.556 25.1906 103.193 25.0195 102.723C25.1704 102.404 25.1704 102.404 25.4925 102.556C25.4925 102.556 25.6434 102.237 25.4925 102.556Z" fill="#040404"/>
<path id="Vector_14" d="M2.3598 107.414C2.20965 107.73 2.53366 107.881 2.3598 107.414C2.20965 107.73 2.20965 107.73 2.20965 107.73C2.20965 107.73 2.20965 107.73 2.3598 107.414C2.20965 107.73 2.3598 107.414 2.3598 107.414Z" fill="#040404"/>
<path id="Vector_15" d="M71.1547 95.6925C71.3038 95.3756 71.3038 95.3756 71.1547 95.6925C71.6205 95.5254 71.4713 95.8423 71.1547 95.6925C71.4713 95.8423 71.1547 95.6925 71.1547 95.6925Z" fill="#040404"/>
<path id="Vector_16" d="M49.3405 53.3642L49.19 53.6828C48.8729 53.5333 48.8729 53.5333 49.3405 53.3642C48.8729 53.5333 48.8729 53.5333 49.3405 53.3642Z" fill="#040404"/>
<path id="Vector_17" d="M92.8119 99.5273C92.4953 99.3774 92.4953 99.3774 92.8119 99.5273C92.6444 99.0606 92.6444 99.0606 92.8119 99.5273C92.9611 99.2104 92.6444 99.0606 92.8119 99.5273Z" fill="#040404"/>
<path id="Vector_18" d="M64.9205 76.2056L64.7688 76.5254C64.2976 76.6952 64.4493 76.3754 64.9205 76.2056C64.4493 76.3754 64.4493 76.3754 64.9205 76.2056Z" fill="#040404"/>
<path id="Vector_19" d="M65.9688 97.4891C65.9688 97.4891 65.8214 97.8044 65.9688 97.4891C65.6507 97.3378 65.6507 97.3378 65.9688 97.4891Z" fill="#040404"/>
<path id="Vector_20" d="M7.47074 111.466C7.1478 111.315 6.97612 110.845 7.1274 110.527C8.05545 109.403 9.30646 108.432 10.2345 107.309C10.3858 106.99 10.7087 107.141 11.0317 107.293C11.3546 107.444 11.2033 107.763 11.0521 108.081C10.124 109.204 9.19597 110.327 8.09624 110.98C7.79369 111.618 7.47074 111.466 7.47074 111.466Z" fill="#040404"/>
<path id="Vector_21" d="M31.8911 73.1293C31.9334 74.702 31.3238 75.9738 30.8665 76.9276C30.1257 79.3036 29.0588 81.5292 27.9919 83.7547C27.8395 84.0726 27.5347 84.7085 26.8828 84.4075C26.2308 84.1064 26.8616 83.6211 26.6881 83.1526C27.5813 80.4586 28.8006 77.9152 29.6939 75.2212C30.1511 74.2674 30.7819 73.782 31.8911 73.1293Z" fill="#040404"/>
<path id="Vector_22" d="M29.5751 87.6924C30.337 86.1027 30.773 84.3624 31.6873 82.4547C32.1444 81.5008 32.4492 80.865 33.5581 80.2122C33.7105 79.8942 34.1888 79.7268 34.5146 79.8773C34.8405 80.0279 34.6882 80.3458 34.5358 80.6638C32.8173 82.5884 32.2289 84.6466 31.4882 87.0228C31.1834 87.6587 30.8787 88.2945 30.4004 88.462C29.9221 88.6294 29.9221 88.6294 29.5962 88.4788C28.792 88.4957 28.9444 88.1778 29.5751 87.6924Z" fill="#040404"/>
<path id="Vector_23" d="M23.6655 69.1328C23.2298 70.8735 22.3163 72.7815 21.8806 74.5222C21.7283 74.8402 21.7494 75.6269 20.946 75.6436C20.295 75.3424 20.925 74.857 20.7517 74.3883C21.1453 71.0744 22.3633 68.5303 23.7336 65.6682C23.8858 65.3502 24.1903 64.7142 24.6892 65.3334C25.3402 65.6347 25.188 65.9527 24.8835 66.5887C24.579 67.2247 24.1222 68.1787 23.6655 69.1328Z" fill="#040404"/>
<path id="Vector_24" d="M37.0489 91.6838C36.4389 92.9554 35.8289 94.2269 35.2189 95.4985C35.0664 95.8164 34.7614 96.4522 34.1089 96.1513C33.4565 95.8504 34.0877 95.365 34.2402 95.0472C34.9815 92.6714 35.8752 89.9779 37.5952 88.0535C37.7477 87.7356 38.2052 86.7819 38.7051 87.4007C39.3576 87.7016 38.7264 88.187 38.4214 88.8228C37.9639 89.7764 37.5064 90.7301 37.0489 91.6838Z" fill="#040404"/>
<path id="Vector_25" d="M34.2464 91.8808C34.0946 92.199 33.7909 92.8354 33.142 92.5336C32.8175 92.3827 33.1212 91.7463 32.9486 91.2772C33.6871 88.8988 34.5775 86.2022 34.9916 83.6729C35.2953 83.0365 35.4471 82.7183 36.0961 83.02C36.745 83.3218 36.1168 83.8074 36.2894 84.2765C35.8753 86.8058 34.985 89.5024 34.2464 91.8808Z" fill="#040404"/>
<path id="Vector_26" d="M26.8225 78.8787C26.5183 79.5149 26.3662 79.8329 26.0411 79.6822C25.716 79.5315 25.3909 79.3808 25.543 79.0627C25.9574 76.5346 26.6969 74.1572 27.9137 71.6125C28.0658 71.2944 28.6951 70.809 29.0202 70.9597C29.6704 71.2612 29.0411 71.7466 28.889 72.0647C28.1495 74.4421 27.4099 76.8194 26.8225 78.8787Z" fill="#040404"/>
<path id="Vector_27" d="M13.38 53.9596C12.771 55.2316 12.0097 56.8216 12.0518 58.3949C11.8996 58.7129 12.0729 59.1815 11.5951 59.3489C11.1173 59.5163 11.0962 58.7297 11.2485 58.4117C11.3376 55.7337 12.4034 53.5077 13.7947 51.4323C13.9469 51.1143 14.4247 50.9469 14.7503 51.0975C15.0758 51.2481 14.9235 51.5661 14.7713 51.8841C13.989 52.6875 13.6845 53.3236 13.38 53.9596Z" fill="#040404"/>
<path id="Vector_28" d="M24.7469 76.6947C24.595 77.0129 24.4432 77.3312 23.967 77.4985C23.6426 77.3476 23.47 76.8784 23.47 76.8784C23.884 74.349 24.2981 71.8196 25.3609 69.592C25.5127 69.2738 25.6646 68.9556 25.9889 69.1065C26.6377 69.4083 26.3341 70.0448 26.1823 70.363C25.5749 71.6359 25.292 73.0597 25.0091 74.4835C25.0298 75.2709 25.0505 76.0582 24.7469 76.6947Z" fill="#040404"/>
<path id="Vector_29" d="M18.2461 63.3604C17.7892 64.3144 17.3323 65.2684 16.3974 66.3897C16.2451 66.7077 16.0928 67.0257 15.7671 66.8751C15.4415 66.7245 15.5938 66.4065 15.7461 66.0885C16.3342 64.03 17.5737 62.2727 18.0095 60.5322C18.1618 60.2142 18.4875 60.3648 18.6398 60.0468C18.9654 60.1974 19.1388 60.6659 18.9865 60.9839C19.0076 61.7705 18.225 62.5739 18.2461 63.3604Z" fill="#040404"/>
<path id="Vector_30" d="M15.276 56.4656C15.4282 56.1475 15.9056 55.9802 16.0578 55.6621L16.5352 55.4947C16.8605 55.6454 16.7084 55.9635 16.7084 55.9635C15.9685 58.3405 15.0556 60.2489 14.3157 62.6259C14.1636 62.944 14.1636 62.944 13.6861 63.1114C13.3608 62.9607 13.0355 62.81 13.1877 62.4919C13.3189 61.3871 13.7754 60.4329 13.7544 59.6461C14.363 58.3739 15.1448 57.5704 15.276 56.4656Z" fill="#040404"/>
<path id="Vector_31" d="M5.79424 51.8583C6.22936 50.1167 6.83731 48.8442 7.59724 47.2534C7.74923 46.9353 8.05321 46.299 8.53001 46.1317C9.00681 45.9643 9.00681 45.9643 9.33162 46.1151C9.65644 46.2659 9.50446 46.5841 9.35247 46.9022C8.59253 48.493 7.68061 50.4018 7.2455 52.1433C6.46472 52.947 6.11906 52.0091 5.79424 51.8583Z" fill="#040404"/>
<path id="Vector_32" d="M39.9245 95.4319C38.9902 96.5533 38.3814 97.8255 37.7726 99.0976C37.6204 99.4156 37.3159 100.052 36.9905 99.901C36.3397 99.5997 36.4919 99.2817 36.7963 98.6456C37.4052 97.3735 38.1662 95.7834 38.775 94.5113C39.0794 93.8752 39.3838 93.2391 40.0347 93.5404C40.8587 94.3104 40.2289 94.7958 39.9245 95.4319Z" fill="#040404"/>
<path id="Vector_33" d="M9.22056 50.3918C9.67655 49.4374 9.98054 48.8011 10.7614 47.9975C11.2382 47.8302 11.3902 47.512 11.5631 47.981C11.8879 48.1318 11.7359 48.4499 11.5839 48.768C10.4991 50.2079 9.41426 51.6478 9.62881 53.6909C9.47681 54.0091 9.32481 54.3272 8.99997 54.1764C8.52313 54.3437 8.35028 53.8748 8.50228 53.5567C8.15659 52.6188 8.76457 51.3462 9.22056 50.3918Z" fill="#040404"/>
<path id="Vector_34" d="M20.6477 66.4895C20.1909 67.4434 19.8863 68.0793 19.5818 68.7152C19.4295 69.0332 19.2772 69.3511 18.9513 69.2004C18.6253 69.0497 18.7776 68.7317 18.9299 68.4138C19.2131 66.9912 19.9745 65.4015 20.7358 63.8117C20.8881 63.4937 21.0404 63.1758 21.3663 63.3265C21.6923 63.4772 21.54 63.7952 21.7137 64.2639C21.735 65.0505 20.9523 65.8536 20.6477 66.4895Z" fill="#040404"/>
<path id="Vector_35" d="M36.1855 60.3214C37.099 58.4134 37.6869 56.3546 38.7526 54.1285C38.9048 53.8105 39.2093 53.1745 39.8603 53.4758C40.5113 53.777 40.2068 54.4131 40.0546 54.7311C39.2934 56.3211 38.8577 58.0618 37.6188 59.8193C37.3143 60.4553 36.8366 60.6227 36.1855 60.3214Z" fill="#040404"/>
<path id="Vector_36" d="M40.6129 60.092C40.3089 60.7283 39.8529 61.6827 39.5489 62.319C39.3969 62.6371 39.2449 62.9552 38.5951 62.6536C38.2703 62.5028 38.4223 62.1847 38.2494 61.7158C39.0094 60.1251 39.4446 58.3837 40.2046 56.793C40.3566 56.4749 40.6606 55.8386 41.3104 56.1402C41.6352 56.291 41.6561 57.0781 41.5041 57.3962C41.3729 58.5014 41.0689 59.1376 40.6129 60.092Z" fill="#040404"/>
<path id="Vector_37" d="M59.1468 92.2071C58.9947 92.5251 58.8426 92.8431 58.6904 93.1611C58.5383 93.4791 58.234 94.1152 57.7351 93.4955C57.084 93.1939 57.7138 92.7087 57.866 92.3907C58.4745 91.1186 58.7575 89.6958 59.2139 88.7417C59.5182 88.1057 59.8224 87.4697 60.148 87.6205C60.7991 87.9221 60.4948 88.5581 60.1905 89.1942C59.7341 90.1482 59.2777 91.1022 59.1468 92.2071Z" fill="#040404"/>
<path id="Vector_38" d="M35.9202 51.1528C35.4656 52.108 35.011 53.0632 34.2328 53.8673C34.0812 54.1857 33.9297 54.5041 33.2825 54.2019C32.9588 54.0508 33.1104 53.7324 32.9383 53.2629C33.5444 51.9893 33.6754 50.883 34.2816 49.6094C34.5847 48.9726 35.0598 48.8053 35.3834 48.9564C36.0307 49.2586 35.7276 49.8954 35.4245 50.5322C36.0718 50.8344 35.9202 51.1528 35.9202 51.1528Z" fill="#040404"/>
<path id="Vector_39" d="M56.9978 99.0296C57.7597 97.44 58.5215 95.8504 59.2833 94.2608C59.4356 93.9429 59.588 93.625 59.9142 93.7757C60.2404 93.9263 60.4142 94.3949 60.2618 94.7128C59.5 96.3024 58.8905 97.5741 57.8025 99.013C57.9764 99.4816 57.4764 98.8623 56.9978 99.0296Z" fill="#040404"/>
<path id="Vector_40" d="M49.5469 81.2925C49.9818 79.5506 50.5685 77.4906 51.0034 75.7487C51.1553 75.4305 51.3072 75.1123 51.7837 74.945C52.1082 75.0959 52.2809 75.5649 52.129 75.8831C51.6941 77.625 51.2592 79.3668 50.4997 80.9578C50.5205 81.7451 49.8714 81.4433 49.5469 81.2925Z" fill="#040404"/>
<path id="Vector_41" d="M48.8611 76.2429C48.7092 76.5611 48.5573 76.8793 48.0809 77.0466C47.929 77.3648 47.6045 77.2139 47.6045 77.2139C47.2799 77.063 47.2799 77.063 47.4318 76.7448C47.8667 75.003 48.4743 73.7302 48.9091 71.9884C49.061 71.6702 49.6894 71.1847 50.0139 71.3356C50.663 71.6373 50.0347 72.1228 49.8828 72.441C49.5998 73.8646 49.4687 74.9701 48.8611 76.2429Z" fill="#040404"/>
<path id="Vector_42" d="M54.8277 79.9587C55.4748 80.2609 55.6469 80.7304 55.8189 81.2C55.3849 82.9432 54.7788 84.2168 54.6684 86.1111C54.5169 86.4295 54.6889 86.8991 53.8903 86.9153C53.5667 86.7641 53.3946 86.2946 53.5462 85.9762C53.3331 83.9308 54.2422 82.0203 54.8277 79.9587Z" fill="#040404"/>
<path id="Vector_43" d="M52.7485 76.9871C53.3957 77.2893 53.8914 77.9099 53.5883 78.5467C53.3058 79.9714 52.8512 80.9266 52.5687 82.3513C52.4171 82.6697 52.2656 82.9881 51.942 82.837C51.2947 82.5348 51.7699 82.3675 51.5978 81.898C51.8803 80.4733 52.3144 78.7302 52.7485 76.9871Z" fill="#040404"/>
<path id="Vector_44" d="M79.9213 100.318C79.7691 100.636 79.7901 101.423 79.1393 101.121C78.4885 100.82 78.7929 100.184 78.9451 99.8659C79.2075 97.6563 80.1207 95.7481 81.186 93.5219C81.3382 93.2038 81.6426 92.5678 82.2934 92.8691C82.9442 93.1704 82.3144 93.6558 82.1622 93.9738C81.5744 96.0327 80.9866 98.0916 79.9213 100.318Z" fill="#040404"/>
<path id="Vector_45" d="M76.5052 91.9953C75.8765 92.4808 75.9181 94.0551 74.9439 93.6026C73.9697 93.1502 74.9023 92.0284 75.2062 91.392C75.814 90.1194 76.0971 88.6959 76.3802 87.2725C76.5322 86.9543 76.6841 86.6362 76.8361 86.318C76.9881 85.9999 77.4648 85.8325 77.7895 85.9834C78.1142 86.1342 77.9623 86.4523 77.8103 86.7705C77.5272 88.194 77.4169 90.0864 76.5052 91.9953Z" fill="#040404"/>
<path id="Vector_46" d="M60.4563 70.907C60.5666 69.0146 61.8031 67.2565 62.2382 65.5149C62.3901 65.1968 62.7149 65.3476 62.7149 65.3476C63.0396 65.4984 63.3644 65.6492 63.2124 65.9674C62.7774 67.709 62.3423 69.4506 61.2577 70.8905C61.1058 71.2087 60.781 71.0578 60.4563 70.907Z" fill="#040404"/>
</g>
</svg>
