<svg width="105" height="178" viewBox="0 0 105 178" fill="none" xmlns="http://www.w3.org/2000/svg">
<path id="Vector" d="M12.8189 166.88C10.5181 166.88 8.54596 166.551 6.57382 166.221C5.25905 165.892 4.27298 165.234 3.6156 164.576C2.62953 163.588 2.62953 162.272 3.28691 160.626C4.60167 157.993 5.91643 155.689 7.55989 153.385C5.58774 153.055 4.27298 152.726 2.62953 152.397C1.31476 152.068 0.657382 151.08 0.986072 149.764C1.64345 147.131 1.97214 144.497 3.28691 142.193C3.94429 141.206 4.27298 140.218 4.93036 139.231C5.58774 137.914 6.24512 136.598 7.55989 135.94C8.54596 135.281 8.54596 134.952 7.55989 134.294C6.24512 133.635 5.25905 132.648 3.94429 131.99C2.95822 131.331 2.95822 130.673 3.28691 129.686C3.94429 128.369 4.27298 126.723 5.58774 125.078C4.27298 125.078 3.28691 125.078 2.30084 124.748C0.657382 124.09 0 123.761 0 122.115C0.328691 118.494 0.328691 114.545 1.64345 110.924C2.62953 108.62 3.6156 105.987 4.60167 103.683C5.91643 101.379 7.88858 100.062 9.86072 98.4163C13.1476 95.1247 17.4206 93.479 22.0223 92.8207C24.3231 92.1624 26.9526 92.1624 29.5822 92.8207C33.1978 93.479 37.1421 93.8081 40.7577 94.7956C42.0724 95.1247 43.3872 95.4539 45.0306 95.7831C45.688 96.1122 46.0167 95.4539 46.3454 95.1247C47.9889 91.8332 51.2758 89.2 53.5766 86.2377C54.234 85.2502 55.2201 84.2628 55.5487 83.2753C56.2061 81.6295 57.5209 80.6421 58.507 79.3255C59.1643 78.6672 59.8217 78.0089 60.4791 77.0214C61.1365 76.034 61.7939 75.3757 62.7799 74.7174C64.4234 73.0716 66.7242 72.7425 68.3677 70.7675C70.9972 67.8052 74.9415 66.4886 77.8997 64.1845C82.8301 60.893 88.0891 57.6015 93.0195 53.9808C95.3203 52.3351 97.9499 50.3602 100.251 48.7144C103.866 46.0812 108.139 44.4354 112.412 43.1188C116.357 42.1314 119.972 41.1439 123.916 40.4856C132.462 39.4982 140.351 36.5358 148.568 35.2192C153.17 34.5609 157.772 33.9026 162.045 33.5734C164.674 33.2443 167.304 32.586 170.262 31.9277C171.248 31.5985 170.591 30.6111 171.248 30.2819C171.905 29.9528 172.234 31.2694 172.891 30.6111C173.549 29.6236 174.535 28.9653 175.192 27.9779C176.507 26.6613 177.493 25.0155 179.136 24.0281C181.109 23.0406 182.752 21.3948 184.067 19.7491C184.724 18.7616 185.71 17.7742 186.696 17.1159C190.641 14.4827 192.941 10.5328 195.242 6.58303C196.886 3.94982 199.515 2.30406 201.816 0C202.145 0 202.474 0 202.802 0C206.747 1.64576 211.019 1.97491 214.964 3.62067C216.936 4.60812 218.251 5.59557 219.565 7.57048C220.88 9.54539 222.524 11.1911 224.167 12.8369C227.125 15.4701 229.426 18.4325 231.398 21.724C232.056 23.0406 233.042 24.0281 234.028 25.3447C235.343 27.6487 235.671 30.2819 236 32.586C236 33.5734 235.343 34.5609 235.014 35.2192C234.685 36.2067 233.699 36.865 233.37 37.8524C233.37 38.1816 233.042 38.1816 232.713 38.1816C230.412 38.1816 229.097 39.4982 227.783 41.1439C227.454 41.4731 227.454 41.4731 227.125 41.8022C223.181 43.7771 220.223 47.0686 216.607 49.7019C210.691 53.9808 205.432 59.2472 199.515 63.8554C196.228 66.4886 193.27 69.1218 189.983 71.755C188.669 72.7425 187.682 74.7174 186.696 76.034C184.067 80.3129 181.109 84.2628 177.822 87.5543C175.521 89.8583 172.563 91.8332 169.933 93.8081C165.989 96.4414 161.716 98.0871 157.114 99.0746C154.813 99.7329 152.841 100.72 150.869 101.708C147.253 103.354 143.309 103.683 139.365 104.67C132.791 106.316 126.217 108.62 119.315 110.595C117.014 111.253 114.713 112.57 112.741 113.886C112.084 114.216 111.097 114.545 110.44 114.874C107.153 115.861 104.524 118.165 101.894 120.14C99.5933 121.786 97.2925 123.432 94.9916 125.078C94.6629 125.407 94.3343 125.736 94.0056 126.065C93.0195 126.723 92.3621 127.382 91.0473 127.711C89.4039 128.369 87.4318 129.027 86.117 130.015C84.8022 130.673 83.8162 131.331 82.5014 131.99C82.1727 131.99 81.844 131.99 81.844 132.319C77.571 135.61 71.9833 137.256 67.7103 140.548C66.3955 141.535 64.7521 141.864 63.4373 142.852C62.7799 143.51 62.1226 144.168 62.1226 145.156C62.1226 150.093 60.8078 154.372 58.8357 158.651C57.5209 161.613 56.2061 164.576 53.9053 166.88C51.6045 169.513 49.3036 171.817 46.0167 173.134C43.7159 174.121 41.415 175.767 38.7855 176.425C33.5265 177.742 28.2674 178.4 23.0084 177.742C20.3788 177.413 18.078 177.083 15.7772 176.096C14.1337 175.438 13.1476 174.45 11.8329 173.463C11.1755 172.804 11.5042 171.817 11.5042 171.159C11.8329 169.842 12.4903 168.526 12.8189 166.88ZM125.231 106.974C125.231 106.974 124.903 106.974 124.903 107.303L125.231 106.974C128.518 106.645 131.476 104.999 134.435 104.341C138.708 103.354 143.309 102.366 147.582 101.379C148.897 101.049 149.883 100.72 150.869 99.7329C147.911 100.062 144.953 100.72 141.994 101.379C136.407 102.695 130.819 104.67 125.231 106.316C125.231 106.316 125.231 106.645 125.231 106.974ZM83.8162 107.633C83.8162 107.633 84.1448 107.633 83.8162 107.633C83.8162 107.303 83.8162 107.303 83.8162 107.633C79.8719 109.278 76.2563 111.911 72.6407 113.886C70.6685 114.874 68.6964 116.19 66.7242 117.178C62.7799 119.153 59.493 121.786 55.5487 123.761C53.2479 124.748 51.6045 126.723 48.9749 127.382C48.3175 127.711 47.9889 127.382 47.3315 127.052C45.3593 126.065 43.3872 124.748 41.415 124.419C38.7855 124.09 36.4847 123.761 33.8552 124.09C29.9109 124.419 26.2953 125.078 22.6797 126.723C17.7493 129.027 13.4763 132.319 9.53203 136.269C8.54596 136.927 7.55989 137.585 6.90251 138.573C4.93036 141.864 3.28691 145.485 2.62953 149.435C2.62953 150.093 2.62953 150.422 3.28691 150.422C4.93036 151.08 6.57382 151.41 8.54596 151.41C9.86072 151.41 10.5181 152.397 9.53203 153.385C7.88858 156.018 5.91643 158.322 4.93036 161.284C4.27298 162.93 4.27298 163.588 5.91643 164.247C6.57382 164.576 7.2312 164.905 7.88858 164.905C9.86072 165.234 11.8329 165.234 13.805 165.234C15.1198 165.234 15.4485 165.892 14.7911 166.88C13.805 168.196 13.805 169.842 13.1476 171.488C12.8189 171.817 13.1476 172.475 13.4763 172.804C14.4624 173.463 15.4485 174.121 16.4345 174.45C17.7493 175.109 19.3928 175.109 20.7075 175.438C25.3092 176.425 29.5822 176.096 34.1838 175.438C38.7855 174.779 42.4011 172.475 46.3454 170.5C47.3315 169.842 48.3175 169.513 49.3036 168.526C52.2618 165.563 54.8914 162.272 56.5348 158.322C58.507 154.043 60.1504 149.435 60.1504 144.827C60.1504 144.168 60.1504 143.839 59.493 143.51C59.1643 143.51 58.8357 143.181 58.8357 142.852C58.8357 142.193 59.1643 142.193 59.493 141.864C60.4791 141.535 61.4652 141.206 62.1226 140.877C65.4095 138.902 68.3677 136.927 71.9833 135.281C75.5989 133.306 79.2145 131.331 82.8301 129.356C86.117 127.711 89.0752 126.065 92.0334 124.09C93.6769 123.103 95.3203 121.457 97.6212 120.14C96.9638 120.14 96.6351 120.14 96.6351 120.14C92.0334 121.786 87.4318 121.457 82.8301 121.128C80.5292 120.799 78.8858 119.153 78.8858 116.849C78.8858 115.203 79.5432 113.557 80.5292 112.241C81.844 110.595 83.1588 109.278 83.8162 107.633ZM223.181 41.8022V42.1314C223.181 42.1314 223.51 42.1314 223.181 41.8022C223.838 41.8022 224.496 41.8022 224.167 41.1439C223.51 39.8273 224.167 40.1565 224.825 40.1565C225.811 40.1565 226.468 40.1565 225.811 38.8399V38.5107C226.797 37.1941 226.797 35.8775 226.797 34.5609C227.125 33.2443 227.125 32.2568 227.454 30.9402C227.454 30.2819 227.783 29.6236 228.44 29.9528C229.426 29.9528 229.097 30.6111 229.097 31.2694C229.097 31.9277 229.097 32.2568 228.769 32.9151C228.44 34.2317 228.111 35.8775 228.111 37.5233C229.097 36.5358 230.412 36.2067 230.412 34.89C230.412 33.2443 231.07 31.9277 231.07 30.2819C231.07 29.6236 231.398 28.9653 232.384 29.2945C233.699 29.2945 233.37 29.9528 233.37 30.2819C233.042 31.5985 233.042 32.9151 232.713 34.2317C234.685 33.5734 234.685 32.586 234.357 30.2819C233.699 26.6613 231.727 24.0281 229.755 21.3948C228.769 20.0782 228.111 18.4325 227.125 17.445C224.496 14.8118 221.538 12.1786 219.237 9.21624C217.265 6.91218 215.292 5.26642 212.663 4.60812C210.033 3.62067 207.075 3.29151 204.446 2.30406C203.131 1.97491 202.474 2.30406 202.145 3.29151C201.816 4.27897 201.487 4.60812 200.83 4.93727C199.515 5.59557 198.858 6.58303 197.872 7.89963C195.571 11.5203 192.941 15.141 190.312 18.4325C188.011 21.0657 185.382 23.3697 182.752 25.3447C180.78 26.6613 178.808 28.307 177.164 29.9528L176.836 30.2819C176.178 31.9277 174.863 32.586 173.549 33.5734C171.577 34.89 169.276 34.89 167.304 35.2192C162.702 36.2067 158.1 37.1941 153.499 37.5233C149.226 37.8524 145.281 38.5107 141.337 39.8273C138.708 40.8148 135.749 41.4731 133.12 41.4731C130.49 41.4731 128.189 42.1314 125.56 42.4605C123.916 42.7897 122.273 43.1188 120.63 43.448C118 43.7771 115.042 44.1063 112.741 45.752C110.111 47.3978 107.153 47.727 104.524 50.031C102.552 51.6768 100.251 53.3225 97.6212 54.6391C96.9638 54.9683 96.6351 55.2974 95.9777 55.6266C94.9916 56.9432 93.6769 57.6015 92.0334 58.2598C90.0613 58.9181 88.7465 60.2347 87.4318 61.5513C87.1031 61.8805 87.1031 62.2096 86.4457 62.2096C82.8301 64.1845 79.8719 66.8177 76.2563 68.4635C72.9694 70.1092 70.6685 72.7425 67.3816 74.7174C65.4095 75.7048 64.4234 77.6797 62.7799 78.9963C61.7939 79.6546 61.1365 80.3129 60.8078 81.3004C59.493 84.2628 56.8635 86.2377 54.5627 88.5417C52.9192 90.5166 50.6184 92.4915 48.9749 95.1247C58.507 92.4915 68.039 91.1749 75.5989 84.9211C75.5989 84.9211 75.2702 84.5919 74.9415 84.5919C74.6128 84.2628 74.2841 83.9336 74.6128 83.2753C74.9415 82.9462 75.2702 82.9462 75.9276 83.2753C76.2563 83.2753 76.585 83.6045 76.585 83.6045C77.571 84.9211 79.2145 84.5919 80.2006 83.9336C84.8022 81.6295 90.0613 80.3129 94.6629 77.6797C95.9777 77.0214 96.3064 76.6923 94.9916 75.7048C94.3343 75.3757 93.3482 75.0465 94.0056 74.0591C94.6629 73.0716 95.3203 74.0591 96.3064 74.0591C96.6351 74.0591 96.6351 74.0591 96.9638 74.3882C97.9499 75.0465 98.9359 75.0465 99.922 75.0465C102.552 75.0465 105.181 74.0591 107.482 72.7425C110.44 71.4258 113.398 69.7801 116.685 69.4509C115.699 69.1218 115.37 68.1343 114.384 67.8052C114.056 67.8052 113.398 67.476 113.398 66.8177C113.727 66.1594 114.384 66.1594 115.042 66.4886C118 67.8052 120.301 69.7801 121.616 72.7425C121.944 73.7299 121.944 74.3882 121.944 75.3757C121.287 77.3506 120.63 79.6546 119.643 81.6295C119.315 82.2878 118.986 82.617 118.657 82.9462C116.357 84.9211 113.398 85.9085 111.426 88.5417C111.426 88.8709 111.097 88.8709 110.769 88.8709C106.496 91.8332 102.88 95.4539 98.6072 98.0871C96.3064 99.4037 94.3343 101.379 92.0334 102.695C89.7326 104.012 88.0891 105.658 86.7744 107.633C86.7744 107.633 86.4457 107.962 86.7744 107.962C86.7744 108.291 87.1031 107.962 87.1031 107.962C88.7465 106.316 90.7187 105.987 93.0195 105.328C93.6769 104.999 94.3343 104.999 94.9916 105.328C97.9499 106.974 100.251 109.278 100.908 112.899C101.237 113.886 100.908 114.545 99.922 115.203C99.2646 115.532 98.9359 115.861 98.2785 116.19C95.649 117.836 93.0195 119.153 90.0613 120.14C93.0195 120.14 95.9777 119.153 98.9359 118.494C102.88 117.507 106.496 114.874 110.44 113.557C111.755 112.899 113.398 112.241 114.713 111.253C118.657 108.949 121.944 105.987 126.875 104.999C130.49 104.341 134.106 102.695 137.721 101.708C142.323 100.391 146.925 99.0746 151.855 98.4163C155.471 98.0871 158.758 98.0871 162.373 96.7705C168.29 94.4664 173.22 91.1749 177.822 86.896C182.423 82.617 185.382 77.3506 188.997 72.0842C189.983 70.7675 190.312 68.4635 192.613 68.7926L192.941 68.4635C193.599 65.8303 193.928 63.1971 194.914 60.5639C194.914 60.2347 194.585 59.5764 195.242 59.5764C195.9 59.5764 195.9 60.2347 195.9 60.5639C195.9 62.5388 195.242 64.5137 194.914 66.4886C196.228 65.5011 197.214 64.8428 197.543 62.8679C197.543 60.2347 198.201 57.6015 198.201 54.9683C198.201 54.31 198.529 53.9808 199.187 53.9808C199.844 53.9808 200.173 54.6391 200.173 55.2974C199.844 57.9306 199.844 60.5639 199.187 63.1971V63.5262H199.515C200.501 62.5388 202.145 61.8805 202.145 60.2347C202.474 57.6015 202.802 54.6391 203.46 52.0059C203.46 51.3476 203.788 51.0185 204.117 50.6893C204.446 50.6893 204.774 50.6893 205.103 51.0185C205.432 51.6768 205.432 52.0059 205.103 52.6642C204.446 54.9683 204.117 57.2723 203.788 59.5764C203.788 59.5764 204.117 59.5764 204.117 59.9056C205.103 59.2473 206.089 58.5889 206.418 56.9432C206.747 53.6517 207.404 50.3602 208.39 47.0686C208.39 46.4103 208.719 45.752 209.376 46.0812C210.033 46.0812 210.033 46.7395 209.705 47.3978C209.376 47.727 209.376 48.3853 209.376 48.7144C209.047 51.0185 208.39 53.6517 208.061 56.2849C209.376 55.6266 210.362 54.6391 211.019 53.6517C211.348 53.3225 212.006 52.9934 212.006 52.0059C212.334 50.6893 212.334 49.3727 212.663 48.0561C212.992 46.0812 213.32 43.7771 213.649 41.8022C213.649 41.1439 213.978 40.4856 214.635 40.8148C215.292 41.1439 215.292 41.8022 215.292 42.1314C214.306 44.7646 214.306 47.727 213.649 50.6893C213.32 51.0185 213.32 51.0185 213.649 51.3476C213.649 51.6768 213.978 51.3476 213.978 51.0185C214.635 50.6893 215.292 50.031 215.95 49.7019C217.265 49.0436 217.922 47.727 217.922 46.4103C217.922 45.0937 218.251 43.448 218.579 42.1314C218.908 41.1439 219.237 40.4856 218.908 39.4982C218.908 38.5107 218.908 37.8524 219.565 37.1941C219.894 36.865 220.223 36.865 220.223 37.1941C220.88 37.8524 220.88 38.8399 220.552 39.4982C220.223 41.8022 219.894 43.7771 219.237 46.0812C219.237 46.4103 218.908 46.4103 219.237 46.7395H219.565C220.223 46.0812 220.88 45.752 221.866 45.0937C222.195 44.7646 222.524 44.7646 222.524 44.1063C222.852 41.1439 223.181 37.8524 223.838 34.89C223.838 34.2317 224.167 33.5734 224.825 33.5734C225.482 33.5734 225.482 34.5609 225.482 35.2192C224.496 36.865 223.838 39.169 223.181 41.8022ZM25.6379 94.1373C22.0223 93.8082 18.7354 94.7956 15.7772 96.4414C12.4903 98.0871 9.86072 100.72 7.2312 103.024L6.90251 103.354C3.94429 108.291 1.97214 113.557 1.97214 119.482C1.97214 123.103 1.97214 123.103 5.25905 123.103C7.2312 123.103 7.88858 124.419 6.90251 126.065C6.24512 127.052 5.91643 128.369 5.25905 129.356C4.93036 130.015 5.25905 130.015 5.58774 130.673C6.57382 131.99 8.54596 132.319 9.86072 133.306C10.1894 133.635 10.5181 133.306 10.5181 132.977C13.4763 129.357 17.7493 127.052 22.0223 125.078C28.9248 122.115 35.8273 121.457 43.3872 122.773C44.7019 123.103 46.6741 122.773 47.6602 123.761C48.9749 124.748 48.9749 124.09 49.6323 123.103C49.961 122.773 49.961 122.444 49.961 121.786C49.961 119.153 51.9331 117.836 53.9053 116.849C57.8496 114.874 61.7939 113.228 65.7382 111.582C69.3538 110.266 73.298 109.278 76.585 107.303C77.8997 106.316 78.8858 105.328 80.5292 104.67C83.8162 103.354 86.7744 102.037 89.7326 100.391C94.6629 97.758 99.2646 94.4665 103.866 91.1749C105.838 89.5292 107.153 87.2251 109.454 86.2377C111.426 85.2502 112.741 83.6045 114.713 82.617C116.357 81.9587 118 80.6421 118.657 78.6672C118.986 77.6797 119.643 76.3631 119.972 75.3757C120.63 73.7299 119.972 71.0967 118.657 69.7801C118.657 69.7801 118.329 69.4509 118 69.4509C115.699 69.7801 113.398 70.4384 111.755 71.755C109.454 73.4008 107.153 74.7174 104.524 76.034C100.251 78.338 95.649 79.9838 91.0473 81.3004C87.1031 82.617 83.4875 84.5919 79.5432 85.5794C76.585 86.5668 73.6267 87.8834 70.9972 89.2C68.3677 90.5166 66.0668 91.5041 63.4373 92.1624C59.1643 93.1498 55.2201 94.4665 50.9471 95.7831C49.961 96.1122 49.3036 96.4414 48.3175 96.7705C46.6741 98.0871 45.3593 98.0871 43.7159 96.4414L43.3872 96.1122C37.4707 95.7831 31.5543 94.7956 25.6379 94.1373ZM84.4735 119.811C85.4596 120.469 85.4596 119.153 86.117 118.824C90.39 117.836 94.0056 115.861 97.6212 113.557C97.9499 113.228 98.2785 112.899 97.9499 112.241C97.6212 109.937 95.9777 108.291 94.3343 106.974C93.3482 105.987 91.7047 105.658 90.7187 106.316C89.0752 107.632 87.4317 108.949 85.4596 110.266C83.8162 111.582 82.8301 113.557 81.1866 114.545C80.5292 115.203 80.2006 116.52 80.5292 117.507C80.8579 118.495 81.5153 119.153 82.1727 119.153C82.8301 119.482 83.4875 119.482 84.4735 119.811ZM52.5905 122.773C55.2201 120.14 58.1783 119.153 60.8078 117.507C60.4791 117.507 60.4791 117.507 60.1504 117.507C57.5209 118.165 55.5487 120.14 52.9192 120.799C52.2618 121.128 52.5905 121.786 52.5905 122.773ZM66.7242 114.216C65.4095 114.545 64.4234 114.874 63.766 116.19C64.7521 115.532 65.7382 115.203 66.7242 114.216ZM202.474 59.5764C202.474 59.2473 202.474 59.2473 202.474 59.5764C202.474 59.2473 202.474 59.5764 202.474 59.5764ZM61.4652 117.507C61.4652 117.178 61.4652 117.507 61.4652 117.507C61.1365 117.178 61.1365 117.507 61.4652 117.507C61.1365 117.507 61.1365 117.507 61.4652 117.507Z" fill="#0A0A0A"/>
</svg>
